<?xml version="1.0" standalone="no"?>
<!DOCTYPE svg PUBLIC "-//W3C//DTD SVG 20010904//EN"
 "http://www.w3.org/TR/2001/REC-SVG-20010904/DTD/svg10.dtd">
<svg version="1.0" xmlns="http://www.w3.org/2000/svg"
 width="600.000000pt" height="600.000000pt" viewBox="0 0 600.000000 600.000000"
 preserveAspectRatio="xMidYMid meet">
<metadata>
Created by potrace 1.14, written by Peter Selinger 2001-2017
</metadata>
<g transform="translate(0.000000,600.000000) scale(0.100000,-0.100000)"
fill="#000000" stroke="none">
<path d="M0 4400 l0 -1600 170 0 170 0 0 -40 c0 -34 -3 -40 -21 -40 -15 0 -20
-5 -17 -22 2 -18 9 -22 26 -20 17 3 25 -2 29 -17 4 -15 13 -21 34 -21 27 0 29
-3 29 -40 0 -37 -2 -40 -29 -40 -21 0 -30 -6 -34 -21 -4 -15 -12 -20 -29 -17
-21 3 -23 -1 -23 -42 0 -41 2 -45 23 -42 17 3 25 -2 29 -17 4 -15 13 -21 34
-21 27 0 29 -3 29 -40 0 -34 -3 -40 -21 -40 -15 0 -20 -5 -17 -22 3 -21 8 -23
68 -23 54 0 65 -3 68 -17 2 -12 13 -18 33 -18 27 0 29 -2 29 -40 l0 -40 50 0
50 0 0 -120 c0 -98 3 -120 14 -120 10 0 16 -13 18 -37 2 -21 2 15 -1 80 l-4
117 66 0 67 0 0 -80 c0 -79 11 -102 27 -56 7 19 12 22 31 15 12 -5 22 -15 22
-24 0 -11 11 -15 40 -15 l40 0 0 -40 c0 -38 -2 -40 -31 -40 -26 0 -30 -3 -27
-23 2 -17 9 -21 26 -19 17 3 25 -2 29 -17 3 -12 9 -21 13 -21 5 0 10 -10 12
-22 2 -18 9 -22 26 -20 17 3 25 -2 29 -17 4 -17 13 -21 46 -21 l40 0 -7 -62
c-3 -35 -13 -69 -23 -80 -15 -17 -14 -18 30 -18 l47 0 0 -40 c0 -33 -3 -40
-20 -40 -11 0 -20 -5 -20 -11 0 -6 9 -9 19 -6 14 3 21 -2 25 -17 6 -20 7 -20
17 -2 9 15 13 16 20 5 18 -28 10 -49 -17 -49 -21 0 -25 -3 -19 -18 15 -35 16
-48 7 -72 l-10 -25 -7 28 c-13 49 -33 33 -27 -23 3 -31 1 -50 -6 -50 -5 0 -12
-18 -14 -40 -2 -28 0 -40 9 -40 7 0 13 10 13 23 0 12 9 40 19 62 21 44 23 41
26 -58 1 -32 -2 -60 -7 -63 -4 -3 -8 -22 -8 -44 0 -26 -5 -40 -16 -44 -11 -4
-14 -14 -11 -29 6 -24 -9 -50 -35 -60 -24 -9 -23 -27 2 -27 23 0 26 -10 8 -28
-6 -6 -13 -33 -14 -59 -4 -69 -24 -133 -41 -133 -10 0 -12 -6 -8 -21 5 -14 0
-28 -15 -43 -11 -13 -20 -27 -19 -32 4 -21 -2 -28 -12 -14 -8 12 -9 10 -4 -7
7 -26 -10 -39 -30 -23 -12 10 -15 9 -15 -4 0 -10 5 -14 10 -11 6 3 10 -3 10
-15 0 -17 -4 -20 -23 -16 -12 3 -16 3 -9 0 16 -8 15 -29 -2 -43 -11 -9 -15 -9
-19 1 -2 7 -3 3 -1 -8 3 -16 -4 -26 -27 -37 -18 -8 -27 -17 -20 -21 16 -10 14
-26 -4 -26 -8 0 -15 -4 -15 -10 0 -5 -10 -10 -22 -11 -21 0 -21 -1 -4 -8 14
-5 16 -10 7 -15 -7 -5 -15 -5 -18 -2 -3 3 -12 -2 -18 -11 -12 -16 -14 -16 -30
1 -20 20 -34 13 -15 -8 10 -13 9 -18 -3 -31 -9 -8 -22 -13 -29 -10 -7 3 -18
-4 -23 -17 -11 -23 -75 -51 -114 -49 -14 1 -21 -2 -18 -5 10 -11 -44 -35 -64
-29 -9 3 -20 1 -24 -5 -8 -13 -45 -13 -45 1 0 5 -5 7 -10 4 -6 -4 -8 -11 -5
-16 4 -5 1 -9 -4 -9 -6 0 -11 5 -11 10 0 6 -7 10 -16 10 -10 0 -14 -6 -10 -15
4 -12 -3 -15 -32 -17 -20 0 -45 0 -55 0 -10 1 -20 -5 -23 -13 -4 -8 -15 -15
-26 -15 -11 0 -29 -5 -41 -12 -22 -11 -61 -22 -145 -37 -23 -4 -45 -11 -49
-14 -3 -4 226 -7 510 -7 l516 0 8 42 c6 30 15 46 31 53 12 5 22 14 22 19 0 5
7 18 17 28 15 17 15 18 0 18 -21 0 -21 4 4 75 11 33 18 69 14 82 -3 13 -2 29
2 36 5 8 9 4 13 -11 5 -21 6 -22 25 -7 19 14 19 16 3 29 -21 15 -23 37 -6 54
9 9 7 13 -5 18 -21 8 -22 40 -2 48 8 3 15 12 15 21 0 9 8 14 21 12 30 -3 36
21 7 32 -12 6 -16 10 -9 10 12 1 12 4 3 13 -9 9 -18 9 -37 0 -22 -10 -25 -9
-25 8 0 17 5 19 25 14 16 -4 34 0 50 10 29 19 33 40 6 31 -23 -7 -53 4 -45 16
3 6 14 7 25 4 11 -4 19 -2 19 4 0 6 -8 11 -18 11 -10 0 -22 3 -25 7 -10 10 13
33 33 33 10 0 18 6 17 12 0 7 1 24 2 38 1 23 3 23 12 7 6 -10 9 -27 6 -38 -3
-10 -1 -19 3 -19 5 0 10 17 12 37 2 30 7 37 21 35 9 -2 17 2 17 8 0 5 -19 11
-42 11 -24 1 -35 3 -24 6 14 4 17 11 12 34 -8 41 8 79 31 73 12 -3 22 4 30 21
11 24 10 25 -19 25 -26 0 -29 3 -22 23 3 12 8 24 10 26 8 9 54 -23 54 -38 0
-12 5 -11 22 7 22 21 22 22 3 37 -14 12 -16 18 -8 21 15 7 17 34 3 34 -5 0
-10 -7 -10 -15 0 -8 -9 -15 -20 -15 -18 0 -19 6 -17 52 2 28 9 54 15 56 16 5
15 18 -3 36 -13 13 -13 15 5 21 15 5 20 15 20 40 0 27 5 34 26 39 15 4 29 5
32 1 3 -3 -3 -5 -13 -5 -14 0 -16 -3 -8 -11 13 -13 53 8 53 28 0 16 -31 21
-52 9 -23 -14 -30 -4 -19 27 8 21 7 27 -7 30 -10 3 -5 5 11 6 36 1 31 25 -6
29 -16 2 -25 8 -21 14 4 6 0 14 -7 19 -10 6 -11 9 -1 9 7 0 12 15 12 40 0 22
6 49 12 60 10 16 10 24 0 40 -11 18 -10 20 8 20 23 0 25 12 9 42 -14 26 6 52
21 28 8 -12 10 -10 10 8 0 12 -4 22 -9 22 -6 0 -3 16 5 36 11 26 12 39 4 49
-12 15 -3 46 14 44 6 -1 24 1 39 6 20 5 25 11 18 18 -8 8 -14 8 -23 -1 -7 -7
-19 -12 -27 -12 -12 1 -10 5 7 19 26 22 28 37 7 45 -24 9 -20 91 6 117 20 20
20 22 3 40 -9 10 -12 19 -6 19 12 0 27 38 18 48 -3 3 -13 -3 -20 -14 -13 -17
-15 -17 -21 -2 -4 9 -1 26 5 38 16 30 15 161 -2 171 -9 6 -5 9 12 9 22 1 23 2
9 13 -20 15 -31 45 -19 52 5 3 18 -4 29 -16 12 -13 26 -19 38 -15 21 7 118
-17 138 -34 8 -7 27 -10 42 -7 l28 6 -29 -13 c-33 -15 -57 -69 -57 -129 0 -23
-5 -37 -13 -37 -8 0 -12 -11 -11 -30 1 -17 -2 -33 -7 -36 -4 -3 -8 -10 -8 -15
0 -6 5 -7 10 -4 5 3 10 2 10 -4 0 -5 -5 -13 -11 -16 -6 -4 -8 -13 -5 -20 3 -9
-7 -15 -30 -19 -20 -4 -34 -13 -34 -21 0 -20 16 -19 24 0 6 17 15 19 35 6 12
-8 12 -14 1 -40 -7 -17 -17 -31 -23 -31 -6 0 -4 -7 4 -16 16 -16 14 -64 -2
-64 -5 0 -9 -7 -9 -16 0 -8 5 -12 10 -9 24 15 1 -57 -25 -78 -6 -6 -6 -10 3
-14 6 -2 12 -11 12 -19 0 -8 4 -14 8 -14 4 0 9 -16 10 -35 2 -23 -2 -35 -10
-35 -9 0 -9 -3 -2 -8 14 -9 25 -52 13 -52 -5 0 -9 9 -9 20 0 28 -17 25 -22 -4
-3 -16 0 -27 9 -30 8 -3 12 -9 10 -14 -3 -4 8 -26 23 -49 16 -23 24 -43 19
-45 -9 -3 8 -31 43 -69 10 -10 13 -21 8 -24 -13 -8 -13 -42 1 -50 16 -10 24 4
11 17 -15 15 -16 32 -1 23 17 -11 28 -49 17 -63 -8 -9 -6 -12 8 -10 11 2 20
-1 21 -5 1 -5 10 -15 20 -23 15 -11 15 -13 2 -14 -8 0 -20 5 -27 12 -7 7 -12
8 -12 4 0 -11 40 -44 76 -62 40 -19 57 -55 44 -90 -7 -17 -15 -24 -25 -20 -8
3 -15 1 -15 -4 0 -6 8 -10 18 -10 15 0 15 -2 2 -11 -12 -8 -10 -9 7 -4 17 5
23 1 26 -17 5 -22 5 -22 5 2 0 48 2 60 13 60 5 0 7 -4 4 -10 -3 -5 1 -20 11
-32 9 -13 14 -16 12 -8 -3 8 -2 24 3 35 7 19 8 18 8 -4 1 -20 5 -23 35 -19 24
3 32 0 29 -9 -3 -7 -9 -13 -14 -13 -5 0 -9 -12 -9 -26 0 -25 1 -26 24 -11 20
14 25 14 29 2 6 -15 -13 -25 -51 -25 -25 -1 -24 -2 13 -20 29 -13 43 -16 53
-8 9 8 16 6 26 -7 13 -18 14 -18 25 3 6 12 21 22 31 22 22 0 27 -16 8 -22 -9
-3 -8 -10 5 -23 14 -13 15 -20 6 -26 -7 -4 -18 -1 -26 6 -15 16 -72 30 -81 20
-4 -3 1 -11 11 -17 14 -8 16 -13 6 -24 -7 -9 -8 -14 -1 -14 6 0 12 5 14 11 5
16 48 1 48 -17 0 -17 -12 -18 -28 -2 -9 9 -12 6 -12 -15 0 -15 -6 -27 -12 -27
-10 0 -10 -2 -1 -8 7 -4 9 -13 5 -19 -8 -12 -130 9 -141 24 -18 25 -42 35 -54
24 -11 -8 -17 -5 -27 14 -13 25 -40 42 -40 25 0 -8 24 -36 86 -102 9 -9 14
-24 11 -32 -5 -13 23 -58 58 -91 37 -35 41 -75 8 -75 -12 0 -13 3 -4 14 8 10
5 19 -15 41 -14 15 -28 25 -31 21 -3 -3 2 -15 11 -25 10 -11 16 -26 13 -33 -4
-10 -6 -9 -6 2 -1 8 -15 24 -31 35 -16 11 -30 23 -30 28 0 4 -5 7 -12 7 -7 0
4 -17 24 -37 30 -32 34 -40 23 -50 -8 -7 -19 -13 -25 -13 -5 0 -10 -11 -10
-25 0 -14 -4 -25 -10 -25 -5 0 -10 6 -10 13 0 8 -3 8 -9 -2 -7 -10 -5 -19 6
-26 10 -8 13 -17 8 -26 -8 -12 -6 -12 8 0 21 16 22 2 3 -25 -11 -14 -17 -16
-27 -7 -15 14 -39 6 -39 -14 0 -13 3 -13 15 -3 10 9 15 9 15 1 0 -6 6 -11 14
-11 20 0 31 -19 18 -32 -7 -7 -21 -2 -44 13 -31 22 -33 27 -28 60 4 21 2 40
-5 46 -8 7 -11 -5 -10 -45 0 -47 4 -57 28 -76 32 -26 33 -32 7 -39 -20 -5 -29
-27 -11 -27 5 0 12 -12 15 -26 4 -15 14 -33 21 -41 8 -8 15 -19 15 -24 0 -5
-14 6 -31 26 -17 19 -36 35 -43 35 -6 -1 -1 -9 11 -19 22 -19 26 -30 24 -71
-1 -19 -7 -12 -30 34 -15 32 -31 54 -35 48 -3 -5 1 -24 10 -41 9 -18 13 -35
10 -38 -3 -3 -10 6 -16 21 -11 31 -34 25 -24 -6 5 -17 3 -20 -10 -15 -19 8
-46 -1 -46 -15 0 -5 10 -6 21 -3 14 5 19 3 15 -3 -4 -7 3 -8 24 -2 26 7 30 6
30 -10 0 -12 -5 -17 -18 -13 -10 2 -26 -4 -35 -15 -17 -18 -17 -20 5 -34 24
-15 72 -17 85 -4 4 4 0 12 -9 17 -10 5 -14 17 -11 29 7 28 23 25 23 -4 0 -14
7 -32 16 -40 8 -9 12 -16 8 -16 -5 0 -3 -5 4 -12 15 -15 16 -28 2 -28 -5 0
-10 6 -10 14 0 18 -25 27 -39 13 -13 -13 -59 -16 -90 -5 -29 11 -61 1 -61 -18
0 -19 16 -18 24 2 6 15 8 15 25 0 10 -9 25 -14 35 -10 10 4 16 1 16 -9 0 -12
13 -15 64 -15 49 1 63 5 59 15 -7 17 8 17 33 -2 10 -8 34 -15 53 -15 l34 0
-21 23 c-26 28 -28 42 -6 33 15 -6 15 -4 0 18 -18 28 -22 61 -6 51 6 -3 10
-13 10 -21 0 -9 10 -24 23 -35 19 -16 20 -20 7 -28 -13 -9 -13 -13 3 -28 16
-16 19 -16 28 -3 8 11 12 12 16 3 7 -18 1913 -18 1913 0 0 8 3 7 9 -2 8 -12
15 -13 35 -3 16 7 28 8 31 2 8 -14 612 -13 620 0 3 6 12 10 18 10 7 0 6 -4 -3
-10 -10 -6 227 -10 678 -10 l692 0 0 3000 0 3000 -3000 0 -3000 0 0 -1600z
m2551 1113 c13 -16 12 -17 -3 -4 -10 7 -18 15 -18 17 0 8 8 3 21 -13z m547 -8
c-3 -3 -9 2 -12 12 -6 14 -5 15 5 6 7 -7 10 -15 7 -18z m-228 -37 c0 -17 -10
-6 -25 25 l-16 32 20 -25 c11 -14 21 -28 21 -32z m-430 -70 c0 -5 -18 6 -40
23 -22 18 -40 34 -40 36 0 2 18 -9 40 -23 22 -15 40 -31 40 -36z m2220 -378
c0 -5 -4 -10 -10 -10 -5 0 -10 5 -10 10 0 6 5 10 10 10 6 0 10 -4 10 -10z
m-1800 -100 c0 -5 -2 -10 -4 -10 -3 0 -8 5 -11 10 -3 6 -1 10 4 10 6 0 11 -4
11 -10z m1705 -20 c3 -5 1 -10 -4 -10 -6 0 -11 5 -11 10 0 6 2 10 4 10 3 0 8
-4 11 -10z m-1330 -10 c3 -5 -1 -10 -9 -10 -9 0 -16 5 -16 10 0 6 4 10 9 10 6
0 13 -4 16 -10z m1547 2 c5 9 8 6 8 -10 0 -18 4 -22 19 -17 15 4 19 1 19 -17
0 -29 6 -56 15 -64 4 -4 7 0 7 9 0 10 5 17 10 17 6 0 10 -11 10 -23 0 -20 -5
-24 -36 -25 -52 -2 -56 -12 -6 -12 40 0 48 -7 43 -42 -1 -12 30 -2 40 13 5 8
9 10 10 4 5 -68 19 -100 19 -45 0 43 10 33 53 -55 35 -72 75 -186 83 -240 3
-16 9 -39 13 -50 8 -17 30 -133 36 -185 3 -23 24 -127 41 -203 9 -38 14 -71
11 -74 -3 -3 -2 -16 4 -30 5 -14 5 -22 0 -19 -17 11 -19 -19 -2 -39 13 -16 11
-15 -10 3 -14 12 -31 22 -37 22 -7 0 -12 5 -12 11 0 6 -6 9 -12 7 -7 -3 -19 1
-26 9 -7 7 -22 13 -33 13 -10 0 -19 5 -19 10 0 6 5 10 11 10 5 0 7 5 4 10 -3
6 -15 10 -25 10 -10 0 -20 6 -23 13 -3 9 -7 9 -20 -2 -15 -11 -17 -11 -17 1 0
8 -7 15 -15 15 -8 0 -15 -4 -15 -9 0 -14 -18 -9 -24 8 -3 8 -2 12 4 9 6 -3 7
1 4 10 -5 13 -9 13 -22 3 -13 -11 -15 -10 -9 5 4 10 7 27 7 38 0 12 5 16 15
13 10 -4 15 0 15 11 0 12 -5 15 -21 10 -15 -5 -19 -4 -15 4 4 6 2 11 -4 11 -6
0 -8 5 -4 11 4 8 9 8 17 0 16 -16 27 -13 21 4 -4 9 -1 15 7 15 10 0 10 3 1 12
-15 15 -16 31 0 22 7 -4 8 -3 4 4 -4 7 -3 12 3 12 5 0 6 11 2 28 -6 20 -14 28
-37 30 -16 2 -33 8 -39 14 -7 7 5 9 40 4 28 -3 55 -2 61 2 15 10 25 42 14 42
-6 0 -10 -6 -10 -14 0 -23 -15 -27 -65 -16 -41 9 -49 8 -76 -12 -23 -17 -27
-24 -15 -26 23 -5 20 -22 -5 -22 -11 0 -18 -4 -15 -9 4 -5 0 -11 -6 -14 -7 -2
-10 -8 -6 -12 4 -4 19 0 32 9 29 18 46 21 46 6 0 -6 -11 -15 -25 -20 -16 -6
-25 -17 -25 -31 0 -19 -2 -20 -17 -8 -16 13 -17 12 -4 -4 8 -9 11 -21 7 -24
-4 -4 -11 -1 -16 7 -8 12 -10 12 -16 -3 -3 -9 -2 -23 4 -30 6 -8 5 -26 -3 -52
l-12 -40 -12 30 c-20 51 -21 55 -10 55 6 0 8 8 4 19 -3 12 0 21 11 25 9 4 14
13 10 21 -3 8 -2 15 2 15 4 0 8 9 9 20 1 11 -2 20 -7 20 -12 0 1 41 14 46 6 2
11 23 11 47 0 40 3 52 24 96 7 13 5 23 -7 35 -9 10 -12 16 -7 15 6 -1 19 -1
30 0 28 2 5 16 -64 38 -30 9 -49 19 -42 21 7 2 23 0 34 -5 12 -6 38 -15 57
-21 l35 -12 -25 20 c-20 16 -22 20 -7 20 9 0 17 5 17 10 0 6 -4 10 -8 10 -4 0
-8 9 -9 20 -1 12 4 20 15 20 14 0 13 2 -2 13 -10 8 -20 25 -21 40 -2 14 -7 32
-11 39 -16 24 -11 58 7 58 10 0 19 5 21 12 3 8 9 8 24 0 19 -11 19 -11 -1 -12
-20 -1 -20 -2 0 -9 21 -9 77 18 72 34 -2 6 -21 20 -41 31 -23 13 -34 24 -27
28 22 14 10 26 -24 26 -27 0 -35 -4 -34 -17 0 -11 3 -13 6 -5 2 6 14 12 25 12
17 0 18 -2 8 -16 -11 -13 -10 -16 8 -21 12 -3 22 -9 22 -14 0 -5 7 -9 15 -9 8
0 15 -7 15 -15 0 -13 -3 -13 -20 -3 -15 10 -27 10 -50 1 -16 -6 -30 -7 -30 -2
0 5 -6 9 -14 9 -8 0 -18 10 -22 23 -7 21 -7 21 -15 2 l-8 -20 -1 20 c-2 11 -2
23 -1 28 0 4 -8 7 -18 7 -31 0 -34 18 -4 23 28 4 28 4 5 12 l-24 8 34 28 c18
16 29 29 24 29 -6 0 -20 -10 -33 -22 -27 -26 -33 -22 -26 15 5 24 10 27 47 28
22 1 32 3 21 6 -11 2 -40 12 -65 21 l-45 17 45 5 c25 3 56 2 69 -3 17 -5 27
-4 33 5z m-142 -43 c0 -6 -4 -7 -10 -4 -5 3 -10 11 -10 16 0 6 5 7 10 4 6 -3
10 -11 10 -16z m-1400 -29 c0 -5 -9 -10 -20 -10 -11 0 -20 5 -20 10 0 6 9 10
20 10 11 0 20 -4 20 -10z m-143 -6 c-3 -3 -12 -4 -19 -1 -8 3 -5 6 6 6 11 1
17 -2 13 -5z m1503 -37 c11 -5 9 -6 -4 -4 -11 1 -21 9 -23 17 -3 10 -2 11 4 4
4 -6 15 -14 23 -17z m-1627 -6 c4 0 12 -1 17 -1 6 0 10 -4 10 -9 0 -15 -50 -6
-68 13 -16 16 -16 17 8 8 14 -5 28 -10 33 -11z m1690 -28 c-4 -10 -9 -11 -16
-4 -5 5 -7 18 -3 28 6 14 9 15 16 4 4 -8 6 -21 3 -28z m-1613 -3 c0 -5 -5 -10
-11 -10 -5 0 -7 5 -4 10 3 6 8 10 11 10 2 0 4 -4 4 -10z m165 -20 c10 -11 13
-20 8 -20 -6 0 -13 6 -16 14 -3 8 -18 16 -34 19 -28 4 -28 4 -2 6 15 0 34 -8
44 -19z m45 10 c0 -5 -5 -10 -11 -10 -5 0 -7 5 -4 10 3 6 8 10 11 10 2 0 4 -4
4 -10z m-265 -9 c-3 -6 3 -14 12 -20 27 -16 9 -13 -22 3 -23 12 -24 15 -8 19
10 3 19 5 21 6 2 0 1 -3 -3 -8z m225 -41 c0 -5 -5 -10 -11 -10 -5 0 -7 5 -4
10 3 6 8 10 11 10 2 0 4 -4 4 -10z m-293 -6 c-3 -3 -12 -4 -19 -1 -8 3 -5 6 6
6 11 1 17 -2 13 -5z m83 -14 c0 -5 -4 -10 -10 -10 -5 0 -10 5 -10 10 0 6 5 10
10 10 6 0 10 -4 10 -10z m1697 -6 c-3 -3 -12 -4 -19 -1 -8 3 -5 6 6 6 11 1 17
-2 13 -5z m-1774 -11 c-7 -2 -21 -2 -30 0 -10 3 -4 5 12 5 17 0 24 -2 18 -5z
m-26 -24 c-9 -6 -15 -14 -12 -20 4 -5 1 -9 -4 -9 -12 0 -15 23 -4 33 3 4 13 7
22 7 13 -1 13 -2 -2 -11z m1770 5 c-3 -3 -12 -4 -19 -1 -8 3 -5 6 6 6 11 1 17
-2 13 -5z m-2102 -14 c-3 -5 -11 -10 -16 -10 -6 0 -7 5 -4 10 3 6 11 10 16 10
6 0 7 -4 4 -10z m-70 -20 c-3 -5 -16 -15 -28 -21 -21 -10 -21 -9 2 10 25 23
36 27 26 11z m2236 -7 c13 -17 13 -17 -6 -3 -11 8 -22 16 -24 17 -2 2 0 3 6 3
6 0 17 -8 24 -17z m-76 -3 c3 -5 2 -10 -4 -10 -5 0 -13 5 -16 10 -3 6 -2 10 4
10 5 0 13 -4 16 -10z m54 -14 c7 -8 8 -17 3 -19 -4 -3 -13 3 -20 14 -14 22 0
26 17 5z m-2129 -11 c-10 -12 -9 -15 6 -16 18 0 18 -1 -1 -9 -11 -5 -23 -9
-27 -9 -10 -1 3 32 16 41 17 12 19 9 6 -7z m190 5 c0 -5 -2 -10 -4 -10 -3 0
-8 5 -11 10 -3 6 -1 10 4 10 6 0 11 -4 11 -10z m160 6 c0 -2 -13 -6 -29 -8
-17 -2 -28 -1 -25 4 5 8 54 12 54 4z m-83 -12 c-3 -3 -12 -4 -19 -1 -8 3 -5 6
6 6 11 1 17 -2 13 -5z m63 -14 c0 -5 -10 -10 -22 -10 -19 0 -20 2 -8 10 19 13
30 13 30 0z m100 0 c0 -5 -2 -10 -4 -10 -3 0 -8 5 -11 10 -3 6 -1 10 4 10 6 0
11 -4 11 -10z m-197 -7 c-7 -2 -19 -2 -25 0 -7 3 -2 5 12 5 14 0 19 -2 13 -5z
m127 -22 c-23 -6 -23 -8 -6 -14 15 -6 17 -10 7 -20 -8 -8 -14 -8 -19 -2 -4 6
-22 17 -40 25 l-32 15 57 1 c36 1 48 -1 33 -5z m-317 -8 c-7 -2 -19 -2 -25 0
-7 3 -2 5 12 5 14 0 19 -2 13 -5z m164 1 c-3 -3 -12 -4 -19 -1 -8 3 -5 6 6 6
11 1 17 -2 13 -5z m1933 2 c0 -3 -4 -8 -10 -11 -5 -3 -10 -1 -10 4 0 6 5 11
10 11 6 0 10 -2 10 -4z m-2256 -35 c-10 -10 -21 -16 -24 -14 -3 3 4 11 14 19
28 20 33 17 10 -5z m113 13 c-3 -3 -12 -4 -19 -1 -8 3 -5 6 6 6 11 1 17 -2 13
-5z m263 -4 c-8 -5 -19 -10 -25 -10 -5 0 -3 5 5 10 8 5 20 10 25 10 6 0 3 -5
-5 -10z m235 -10 c-7 -12 -65 -14 -65 -2 0 4 16 8 36 10 21 1 33 -2 29 -8z
m1630 0 c3 -6 -1 -7 -9 -4 -18 7 -21 14 -7 14 6 0 13 -4 16 -10z m-1769 -10
c26 0 14 -16 -21 -29 -19 -7 -35 -18 -35 -24 0 -7 -12 -20 -26 -30 -24 -18
-26 -18 -45 -1 -22 20 -26 10 -5 -12 8 -8 30 -15 48 -15 20 -1 26 -3 14 -6
-11 -3 -26 -11 -34 -19 -7 -8 -23 -14 -35 -13 -20 1 -20 2 3 8 l25 7 -27 6
c-15 3 -25 1 -22 -3 3 -5 -3 -10 -13 -10 -17 -1 -17 -2 0 -6 20 -5 22 -14 5
-32 -11 -10 -8 -11 15 -6 35 9 35 -1 -1 -19 -29 -15 -72 -12 -72 5 0 5 -7 9
-17 9 -14 0 -14 -2 2 -20 19 -21 17 -24 -9 -14 -9 3 -16 12 -16 20 0 8 -4 14
-10 14 -13 0 -13 -13 1 -27 9 -9 8 -16 -4 -27 -18 -18 -37 -21 -37 -6 0 6 -5
10 -12 10 -7 0 -3 -10 9 -22 l22 -22 21 24 c18 20 23 22 30 10 14 -21 12 -30
-4 -24 -7 3 -20 -1 -28 -9 -8 -8 -24 -17 -36 -21 -18 -6 -21 -4 -16 11 6 15 5
15 -9 -2 -9 -11 -11 -21 -6 -23 14 -6 11 -22 -6 -22 -7 0 -18 -7 -23 -16 -5
-8 -19 -21 -32 -27 -28 -14 -42 -44 -16 -34 9 4 16 2 16 -3 0 -6 -7 -10 -15
-10 -8 0 -15 -4 -15 -10 0 -9 25 -14 60 -11 11 1 10 -3 -4 -12 -10 -6 -26 -20
-35 -29 -8 -10 -24 -18 -34 -18 -10 0 -16 -4 -12 -9 3 -5 -3 -12 -12 -14 -14
-4 -13 -5 5 -6 34 -2 26 -21 -9 -21 -17 0 -28 -4 -24 -10 3 -5 19 -10 36 -10
16 0 29 -5 29 -10 0 -6 10 -15 23 -20 19 -8 17 -9 -18 -11 -49 -2 -45 -2 -70
6 -11 4 -16 3 -10 -2 6 -4 19 -18 29 -30 23 -27 4 -31 -22 -5 -26 24 -63 44
-70 38 -3 -3 1 -6 9 -6 10 -1 9 -5 -5 -15 -12 -9 -17 -22 -13 -34 3 -11 0 -22
-7 -25 -6 -2 -3 -5 6 -5 9 -1 18 3 20 8 2 4 13 12 26 15 16 6 22 3 22 -8 0
-10 -6 -13 -15 -10 -12 5 -15 -2 -15 -31 0 -21 4 -34 10 -30 17 11 32 -5 20
-20 -7 -8 -9 -19 -6 -24 4 -5 -13 -14 -36 -20 l-43 -11 58 5 c53 3 79 -8 40
-18 -10 -2 -3 -3 16 -1 32 3 33 3 16 -16 -10 -11 -29 -20 -42 -20 -12 0 -23
-4 -23 -10 0 -5 -11 -10 -24 -10 -14 0 -28 -4 -31 -10 -4 -6 8 -10 30 -10 23
0 38 6 41 15 7 17 54 17 66 0 13 -17 9 -28 -7 -15 -8 6 -23 9 -35 5 -21 -7
-28 -25 -9 -25 5 0 7 -5 4 -10 -4 -6 -12 -7 -18 -3 -19 12 -46 13 -52 3 -3 -6
1 -7 9 -4 29 11 16 -10 -24 -41 -45 -35 -54 -57 -11 -26 16 12 36 21 44 21 9
0 19 5 22 10 10 16 40 12 58 -8 16 -17 16 -19 -5 -30 -13 -6 -33 -14 -45 -17
-21 -6 -33 -25 -15 -25 20 1 87 29 90 39 2 6 12 11 23 11 12 0 23 10 29 25 5
14 12 25 16 25 3 0 3 -8 0 -17 -4 -10 -4 -14 0 -10 4 4 13 2 20 -4 8 -7 14 -7
19 1 3 5 14 10 23 10 12 -1 10 -5 -8 -14 -14 -8 -28 -12 -32 -10 -5 3 -19 -6
-32 -20 -13 -14 -28 -26 -35 -26 -6 0 -11 -7 -11 -15 0 -8 -4 -15 -10 -15 -5
0 -10 -4 -10 -10 0 -16 30 -11 66 11 19 11 40 19 47 16 7 -3 2 -9 -13 -16 -21
-10 -17 -11 30 -6 40 3 49 2 33 -5 -28 -11 -30 -20 -4 -13 35 9 32 -15 -4 -28
-19 -7 -35 -17 -35 -21 0 -4 -10 -9 -22 -9 -18 -1 -19 -2 -5 -6 9 -2 14 -9 11
-15 -4 -6 1 -8 15 -3 11 3 21 2 21 -3 0 -18 -28 -21 -50 -5 -14 10 -25 12 -29
6 -3 -6 -14 -7 -26 -2 -17 6 -17 8 -2 8 9 1 17 6 17 11 0 6 10 14 22 19 23 8
31 40 13 53 -5 4 -24 -4 -42 -18 -36 -28 -63 -33 -43 -9 11 13 8 15 -13 15
-19 0 -25 -4 -21 -14 8 -21 -48 -30 -90 -15 -21 8 -32 17 -29 26 3 7 0 13 -6
13 -6 0 -11 -4 -11 -10 0 -5 -6 -7 -14 -4 -8 3 -17 1 -20 -4 -3 -6 1 -13 10
-16 18 -7 10 -26 -11 -26 -22 0 -54 31 -48 46 6 17 -13 19 -23 2 -5 -7 -10 -3
-16 12 -5 14 -5 27 2 34 14 14 12 26 -5 26 -8 0 -15 -5 -15 -12 0 -6 -2 -9 -5
-6 -3 2 1 18 9 34 8 16 17 39 21 52 6 21 4 22 -19 16 -16 -4 -26 -2 -26 5 0 6
3 11 8 12 4 0 18 2 32 4 14 1 31 -3 39 -9 11 -8 15 -8 18 1 8 23 2 27 -35 25
-28 -2 -33 0 -22 7 8 6 23 8 33 5 11 -3 19 1 23 13 3 10 10 26 15 36 8 15 6
17 -16 11 -16 -4 -25 -2 -25 6 0 6 9 14 20 17 24 6 17 23 -10 23 -11 0 -24 9
-30 21 -15 27 -6 36 15 15 9 -9 21 -14 26 -11 14 9 10 52 -5 58 -8 3 -23 18
-32 32 -15 23 -15 28 -3 36 11 7 11 9 -3 9 -25 0 -22 19 5 30 19 8 20 9 3 9
-19 1 -19 1 0 20 10 10 21 17 24 15 3 -1 6 5 7 14 4 42 13 77 23 80 17 6 11
19 -11 25 l-20 6 20 20 c12 12 28 21 36 21 8 0 15 7 15 15 0 8 5 15 10 15 6 0
10 -5 10 -12 0 -6 9 -1 20 12 11 13 20 37 20 54 0 19 8 38 20 49 25 21 44 22
36 2 -3 -8 -1 -15 4 -15 5 0 15 7 24 15 8 8 23 15 33 15 15 0 16 2 3 10 -9 6
-18 6 -24 0 -15 -15 -29 -12 -23 4 3 8 1 17 -6 20 -7 4 0 4 15 2 16 -2 36 3
45 10 10 7 25 13 33 14 13 0 13 -1 0 -10 -8 -5 -10 -10 -4 -10 16 0 23 10 17
26 -3 8 -15 14 -27 14 -18 0 -18 2 7 15 16 8 36 14 45 13 9 -1 26 0 37 2 15 2
12 4 -10 9 -29 7 -28 8 18 15 58 10 63 28 5 21 -37 -5 -40 -4 -18 5 14 6 42
12 63 12 23 0 41 6 44 14 3 8 14 14 24 14 10 0 19 5 19 11 0 7 10 9 24 5 14
-3 28 -1 32 5 4 6 19 9 36 5 24 -5 46 1 78 22 2 2 -2 8 -10 13 -12 9 -12 10 3
5 10 -3 25 -6 33 -6z m57 3 c-7 -2 -19 -2 -25 0 -7 3 -2 5 12 5 14 0 19 -2 13
-5z m62 -23 c3 -5 -1 -10 -9 -10 -9 0 -16 5 -16 10 0 6 4 10 9 10 6 0 13 -4
16 -10z m1702 4 c-3 -3 -12 -4 -19 -1 -8 3 -5 6 6 6 11 1 17 -2 13 -5z m-2208
-28 c-2 -2 -18 -7 -34 -11 l-30 -6 30 14 c27 13 45 14 34 3z m-224 -6 c-3 -5
-11 -10 -16 -10 -6 0 -7 5 -4 10 3 6 11 10 16 10 6 0 7 -4 4 -10z m572 -36
c-3 -3 -12 -4 -19 -1 -8 3 -5 6 6 6 11 1 17 -2 13 -5z m1553 -6 c0 -5 -6 -8
-14 -8 -8 0 -21 -3 -30 -6 -10 -4 -16 -1 -16 8 0 10 10 15 30 14 16 -1 30 -4
30 -8z m-2125 -28 c-3 -5 -12 -10 -18 -10 -7 0 -6 4 3 10 19 12 23 12 15 0z
m2118 -14 c4 -10 1 -13 -8 -9 -8 3 -12 9 -9 14 7 12 11 11 17 -5z m-1243 -6
c-8 -5 -28 -9 -45 -9 l-30 1 30 8 c17 4 37 8 45 9 13 1 13 0 0 -9z m1230 -17
c0 -5 -5 -15 -11 -23 -9 -13 -10 -13 -6 2 3 9 1 19 -6 22 -7 2 -4 5 6 5 9 1
17 -2 17 -6z m50 3 c0 -3 -4 -8 -10 -11 -5 -3 -10 -1 -10 4 0 6 5 11 10 11 6
0 10 -2 10 -4z m-133 -38 c-3 -7 -5 -2 -5 12 0 14 2 19 5 13 2 -7 2 -19 0 -25z
m168 22 c-3 -5 -12 -10 -18 -10 -7 0 -6 4 3 10 19 12 23 12 15 0z m-1385 -40
c0 -5 -4 -10 -10 -10 -5 0 -10 5 -10 10 0 6 5 10 10 10 6 0 10 -4 10 -10z
m1284 -34 c-19 -30 -40 -36 -22 -6 7 11 16 20 20 20 5 0 8 8 9 18 0 9 3 12 5
5 3 -6 -2 -23 -12 -37z m-1467 28 c-3 -3 -12 -4 -19 -1 -8 3 -5 6 6 6 11 1 17
-2 13 -5z m1561 -11 c-10 -2 -18 -14 -18 -26 -1 -20 -2 -20 -11 -4 -13 22 -3
37 24 36 17 -1 18 -2 5 -6z m-128 -11 c0 -5 -7 -9 -15 -9 -8 0 -15 4 -15 9 0
4 7 8 15 8 8 0 15 -4 15 -8z m-1640 -11 c0 -5 -7 -12 -16 -15 -14 -5 -15 -4
-4 9 14 17 20 19 20 6z m1804 -6 c-4 -8 -10 -15 -15 -15 -5 0 -9 -11 -9 -25 0
-14 -4 -25 -10 -25 -5 0 -10 14 -10 30 0 20 5 30 15 30 8 0 15 5 15 10 0 6 4
10 10 10 5 0 7 -7 4 -15z m-89 -5 c-3 -5 -10 -10 -16 -10 -5 0 -9 5 -9 10 0 6
7 10 16 10 8 0 12 -4 9 -10z m-85 -30 c0 -11 -2 -20 -4 -20 -2 0 -6 9 -9 20
-3 11 -1 20 4 20 5 0 9 -9 9 -20z m33 -15 c-7 -21 -13 -19 -13 6 0 11 4 18 10
14 5 -3 7 -12 3 -20z m-2348 5 c-3 -5 -12 -10 -18 -10 -7 0 -6 4 3 10 19 12
23 12 15 0z m740 0 c3 -5 1 -10 -4 -10 -6 0 -11 5 -11 10 0 6 2 10 4 10 3 0 8
-4 11 -10z m1749 -25 c-8 -20 -12 -41 -8 -48 4 -7 4 -9 -1 -5 -4 4 -14 3 -22
-3 -8 -8 -13 -8 -13 -1 0 6 6 13 13 15 9 4 9 8 -1 15 -11 8 -9 14 10 35 33 35
39 33 22 -8z m352 0 c13 -12 12 -15 -4 -24 -15 -8 -18 -5 -20 15 -2 28 4 30
24 9z m-320 -14 c18 15 18 2 0 -17 -19 -19 -22 -18 -23 9 0 12 1 16 4 9 4 -10
8 -10 19 -1z m-1879 -7 c-3 -3 -12 -4 -19 -1 -8 3 -5 6 6 6 11 1 17 -2 13 -5z
m-87 -24 c0 -5 -7 -7 -15 -4 -8 4 -15 8 -15 10 0 2 7 4 15 4 8 0 15 -4 15 -10z
m127 4 c-3 -3 -12 -4 -19 -1 -8 3 -5 6 6 6 11 1 17 -2 13 -5z m127 -15 c-3 -5
3 -9 12 -9 20 0 11 -13 -11 -16 -8 -1 -15 3 -15 10 0 7 -15 11 -42 10 -28 -2
-33 -1 -13 3 17 2 34 8 39 13 11 11 38 1 30 -11z m131 12 c-11 -10 -95 -26
-95 -17 0 7 58 24 85 25 11 1 15 -3 10 -8z m1838 -21 c-6 -23 -19 -26 -26 -6
-6 16 1 26 19 26 7 0 10 -8 7 -20z m-2108 0 c3 -5 2 -10 -4 -10 -5 0 -13 5
-16 10 -3 6 -2 10 4 10 5 0 13 -4 16 -10z m1757 -22 c-7 -7 -12 -8 -12 -2 0 6
3 14 7 17 3 4 9 5 12 2 2 -3 -1 -11 -7 -17z m-1652 2 c0 -5 -7 -10 -16 -10 -8
0 -12 5 -9 10 3 6 10 10 16 10 5 0 9 -4 9 -10z m-143 -6 c-3 -3 -12 -4 -19 -1
-8 3 -5 6 6 6 11 1 17 -2 13 -5z m-77 -29 c14 -16 10 -18 -14 -9 -9 3 -16 10
-16 15 0 14 16 11 30 -6z m2174 -25 c-6 -6 -10 -3 -10 10 0 13 4 16 10 10 7
-7 7 -13 0 -20z m-2559 -30 c3 -5 1 -10 -4 -10 -6 0 -11 5 -11 10 0 6 2 10 4
10 3 0 8 -4 11 -10z m512 -16 c-3 -3 -12 -4 -19 -1 -8 3 -5 6 6 6 11 1 17 -2
13 -5z m-202 -14 c-28 -12 -45 -12 -45 0 0 6 15 10 33 9 27 0 29 -2 12 -9z
m186 -22 c8 -16 8 -23 -2 -29 -20 -13 -35 -11 -22 2 9 9 8 18 -4 36 -14 21
-14 23 1 17 9 -3 21 -15 27 -26z m2005 -4 c13 -19 14 -28 5 -37 -6 -6 -11 -7
-11 -1 0 5 -4 3 -9 -4 -7 -11 -9 -10 -14 3 -4 9 -3 13 3 10 6 -4 10 5 10 20 0
15 -4 24 -10 20 -5 -3 -10 -1 -10 4 0 19 19 12 36 -15z m-1766 2 c0 -14 -77
-46 -104 -43 -31 4 -31 4 4 6 19 1 46 10 60 21 24 18 40 25 40 16z m270 -20
c0 -3 -4 -8 -10 -11 -5 -3 -10 -1 -10 4 0 6 5 11 10 11 6 0 10 -2 10 -4z
m-660 -15 c0 -5 -9 -7 -20 -4 -11 3 -20 7 -20 9 0 2 9 4 20 4 11 0 20 -4 20
-9z m370 -15 c0 -3 -4 -8 -10 -11 -5 -3 -10 -1 -10 4 0 6 5 11 10 11 6 0 10
-2 10 -4z m-360 -32 c0 -8 -4 -12 -10 -9 -5 3 -10 10 -10 16 0 5 5 9 10 9 6 0
10 -7 10 -16z m130 8 c0 -9 -47 -8 -57 1 -3 4 8 7 25 7 18 0 32 -4 32 -8z
m245 -2 c3 -5 -1 -10 -10 -10 -9 0 -13 5 -10 10 3 6 8 10 10 10 2 0 7 -4 10
-10z m-211 -21 c-3 -5 -10 -7 -15 -3 -5 3 -7 10 -3 15 3 5 10 7 15 3 5 -3 7
-10 3 -15z m166 11 c0 -5 -7 -10 -15 -10 -8 0 -15 5 -15 10 0 6 7 10 15 10 8
0 15 -4 15 -10z m-500 -10 c0 -5 -9 -10 -20 -10 -11 0 -20 5 -20 10 0 6 9 10
20 10 11 0 20 -4 20 -10z m90 0 c0 -5 -4 -10 -10 -10 -5 0 -10 5 -10 10 0 6 5
10 10 10 6 0 10 -4 10 -10z m316 -21 c16 -17 16 -22 4 -29 -8 -6 -19 -10 -25
-10 -5 0 -3 5 5 10 11 7 7 10 -18 10 -21 0 -41 -8 -56 -23 -17 -18 -29 -21
-45 -16 -11 5 -21 14 -21 21 0 9 3 9 12 0 7 -7 18 -12 26 -12 12 0 12 3 1 17
-10 12 -10 15 -1 9 17 -10 73 16 67 31 -7 21 30 15 51 -8z m1804 1 c0 -5 -2
-10 -4 -10 -3 0 -8 5 -11 10 -3 6 -1 10 4 10 6 0 11 -4 11 -10z m520 -5 c11
-13 10 -14 -4 -9 -9 3 -16 10 -16 15 0 13 6 11 20 -6z m-2595 -25 c3 -6 -1 -7
-9 -4 -18 7 -21 14 -7 14 6 0 13 -4 16 -10z m-98 -22 c-3 -8 -6 -5 -6 6 -1 11
2 17 5 13 3 -3 4 -12 1 -19z m-17 2 c0 -5 -7 -10 -15 -10 -8 0 -15 5 -15 10 0
6 7 10 15 10 8 0 15 -4 15 -10z m2192 -40 c0 -16 3 -30 7 -30 14 0 18 -109 4
-119 -19 -14 -13 -69 15 -131 17 -36 40 -99 52 -140 26 -87 98 -266 147 -365
68 -139 89 -214 62 -231 -7 -4 -9 -23 -6 -49 7 -47 -15 -99 -52 -123 -19 -13
-21 -13 -15 2 3 9 10 16 14 16 4 0 8 11 8 25 0 14 -3 23 -6 21 -3 -3 -11 -1
-18 5 -13 11 -64 2 -64 -12 0 -4 -10 -13 -22 -19 -13 -6 -2 8 23 32 40 38 60
66 63 90 1 4 9 16 18 28 12 13 14 20 5 20 -9 0 -8 3 2 9 8 5 9 11 3 15 -6 3
-11 14 -10 24 0 35 -15 97 -26 107 -6 6 -12 26 -14 46 -1 19 -20 70 -42 114
-22 43 -37 82 -34 87 3 4 0 8 -5 8 -6 0 -11 12 -12 28 0 24 -1 25 -10 7 -7
-16 -8 -13 -5 12 3 18 1 35 -4 38 -6 4 -8 10 -5 15 3 5 -2 16 -11 25 -9 9 -14
19 -10 22 3 3 -1 18 -9 32 -7 14 -28 58 -45 96 -18 39 -36 72 -40 75 -14 10
-21 62 -9 76 7 8 9 30 6 54 -3 22 -1 43 5 46 5 3 7 12 4 19 -3 8 2 19 10 25 8
7 14 19 14 28 0 8 3 12 7 9 3 -4 6 -20 5 -37z m-3302 -10 c-24 -15 -36 -11
-14 4 10 8 21 12 24 10 2 -3 -2 -9 -10 -14z m98 1 c20 -11 50 -36 65 -55 l28
-36 -23 0 c-18 0 -20 -2 -8 -10 12 -8 12 -12 0 -37 -15 -29 -49 -62 -63 -63
-5 0 -27 -17 -48 -37 -44 -42 -95 -64 -80 -35 4 10 6 22 4 29 -2 6 1 14 6 18
6 3 11 17 11 31 0 13 4 24 9 24 5 0 11 10 15 23 9 37 70 99 89 91 29 -11 19 9
-20 43 -43 37 -38 41 15 14z m1237 -14 c33 -10 78 -21 100 -26 22 -5 31 -9 20
-10 -12 -1 -25 -5 -30 -10 -6 -5 -26 -12 -45 -15 -35 -7 -35 -7 -10 8 l25 15
-32 1 c-20 0 -32 5 -30 12 1 7 -15 15 -40 18 -49 7 -64 17 -43 30 8 5 17 6 20
1 3 -4 32 -15 65 -24z m2615 28 c0 -7 -30 -13 -34 -7 -3 4 4 9 15 9 10 1 19 0
19 -2z m-695 -35 c3 -5 1 -10 -4 -10 -6 0 -11 5 -11 10 0 6 2 10 4 10 3 0 8
-4 11 -10z m-2112 -7 c-7 -2 -19 -2 -25 0 -7 3 -2 5 12 5 14 0 19 -2 13 -5z
m50 0 c-7 -2 -19 -2 -25 0 -7 3 -2 5 12 5 14 0 19 -2 13 -5z m94 -9 c-3 -3
-12 -4 -19 -1 -8 3 -5 6 6 6 11 1 17 -2 13 -5z m1753 -44 c0 -10 7 -21 16 -24
9 -4 14 -9 11 -13 -4 -3 1 -12 10 -18 15 -11 15 -15 4 -29 -10 -12 -10 -16 -1
-16 7 0 10 -6 7 -14 -3 -8 -1 -17 6 -19 7 -3 -3 -8 -21 -12 -30 -7 -31 -9 -15
-21 16 -13 16 -13 1 -8 -10 3 -32 -1 -49 -10 -38 -19 -55 -20 -65 -4 -5 8 0 9
15 5 17 -4 21 -2 17 9 -4 9 2 14 17 14 18 0 19 2 7 10 -10 6 -11 10 -2 10 6 0
12 5 12 11 0 7 -11 8 -30 4 -19 -4 -30 -3 -30 4 0 6 7 11 16 11 8 0 12 5 9 10
-4 6 -11 8 -16 5 -5 -3 -7 0 -4 7 2 7 9 32 15 55 9 35 13 40 32 35 17 -4 20
-2 15 11 -4 11 -2 14 9 10 7 -3 14 -13 14 -23z m34 5 c-4 -8 -8 -15 -10 -15
-2 0 -4 7 -4 15 0 8 4 15 10 15 5 0 7 -7 4 -15z m-1844 -4 c0 -13 -28 -21 -47
-14 -15 6 -14 8 7 14 36 10 40 10 40 0z m167 -17 c-16 -8 -38 -14 -50 -11 -18
3 -16 5 13 14 51 16 69 15 37 -3z m-1011 -105 c17 24 9 71 -12 71 -8 0 -14 5
-14 10 0 21 23 8 68 -37 44 -45 47 -51 46 -98 -2 -116 -3 -123 -21 -121 -10 0
-21 6 -25 11 -7 9 -13 -56 -8 -80 1 -5 3 -20 4 -32 0 -13 8 -23 16 -23 13 0
13 -1 0 -10 -13 -9 -13 -11 0 -20 8 -5 24 -7 35 -4 20 5 20 5 1 -10 -20 -16
-20 -16 0 -17 19 0 19 0 0 -8 -19 -7 -19 -8 2 -13 19 -5 22 -14 23 -55 1 -26
0 -52 -1 -58 -1 -5 -6 -37 -12 -70 -5 -33 -19 -79 -30 -103 -12 -25 -19 -56
-16 -76 3 -29 1 -32 -17 -29 -12 3 -16 2 -8 -4 6 -4 13 -24 15 -43 1 -19 8
-39 13 -43 7 -6 6 -10 -2 -13 -7 -3 -10 -11 -7 -19 3 -7 1 -16 -5 -20 -6 -3
-11 -1 -11 4 0 6 -4 11 -10 11 -14 0 -12 -27 3 -34 6 -3 2 -3 -10 0 -14 3 -23
1 -23 -6 0 -6 -5 -8 -10 -5 -6 4 -8 10 -6 14 5 7 -8 11 -46 12 -19 0 -25 19
-7 19 8 0 8 5 -1 15 -7 8 -19 15 -26 15 -8 0 -14 4 -14 9 0 10 -76 9 -86 -2
-12 -12 -20 -8 -52 22 -20 19 -32 26 -36 18 -2 -7 -5 -2 -5 11 -1 12 -7 22
-14 22 -7 0 -19 16 -26 36 -11 29 -11 38 -1 44 22 13 36 1 60 -51 13 -27 27
-49 31 -49 3 0 9 -9 12 -20 5 -21 27 -28 27 -9 0 5 5 7 11 4 12 -8 101 23 111
39 21 31 3 94 -46 169 -10 15 -18 38 -18 52 0 34 -11 31 -26 -7 -10 -27 -9
-33 6 -45 16 -13 15 -14 -5 -10 -15 4 -23 0 -23 -9 0 -19 -34 -18 -72 2 -24
12 -28 18 -17 25 10 6 10 9 2 9 -21 0 -3 28 22 34 31 8 73 96 45 96 -5 0 -10
16 -10 35 0 29 4 36 25 41 14 3 30 15 36 25 13 25 34 24 36 -1 1 -11 -2 -20
-8 -20 -5 0 -9 -6 -9 -14 0 -8 -11 -17 -25 -20 -14 -4 -25 -11 -25 -16 0 -18
20 -21 42 -6 30 21 37 20 31 -4 -3 -11 0 -20 6 -20 6 0 11 6 12 13 0 6 2 22 5
35 2 13 0 21 -5 17 -5 -3 -12 -1 -15 4 -4 5 -2 12 4 16 12 8 13 185 1 204 -8
12 -13 12 -36 -3 -21 -14 -39 -16 -83 -11 -77 8 -127 22 -141 39 -9 11 -5 15
25 18 20 2 47 -2 61 -9 29 -15 83 -17 83 -3 0 5 -7 7 -15 4 -8 -4 -15 -1 -15
5 0 6 10 11 23 11 12 0 18 4 12 8 -13 9 -18 54 -7 61 14 11 42 60 42 76 0 13
-11 39 -28 65 -2 2 -7 -2 -12 -10 -6 -9 -10 -10 -10 -3 0 6 8 19 17 28 15 16
18 16 28 1 13 -17 26 -22 24 -8 -6 36 9 29 67 -31 64 -66 67 -67 80 -48z
m1069 90 c10 -15 6 -16 -50 -23 -35 -4 -44 -3 -30 3 11 5 34 10 50 10 23 1 27
4 15 11 -9 6 -10 10 -3 10 6 0 15 -5 18 -11z m-555 -9 c0 -5 -9 -10 -19 -10
-11 0 -23 5 -26 10 -4 6 5 10 19 10 14 0 26 -4 26 -10z m325 0 c-3 -5 -14 -10
-23 -10 -15 0 -15 2 -2 10 20 13 33 13 25 0z m62 -6 c-3 -3 -12 -4 -19 -1 -8
3 -5 6 6 6 11 1 17 -2 13 -5z m73 -28 c0 -2 -7 -7 -16 -10 -8 -3 -12 -2 -9 4
6 10 25 14 25 6z m-190 -52 c0 -12 -2 -12 -14 -2 -8 7 -12 16 -9 21 7 11 23
-2 23 -19z m124 11 c-7 -16 -24 -21 -24 -6 0 8 7 13 27 20 1 1 0 -6 -3 -14z
m2609 -12 c-7 -2 -21 -2 -30 0 -10 3 -4 5 12 5 17 0 24 -2 18 -5z m-3171 -25
c-7 -7 -12 -8 -12 -2 0 14 12 26 19 19 2 -3 -1 -11 -7 -17z m2208 12 c0 -5 -4
-10 -10 -10 -5 0 -10 5 -10 10 0 6 5 10 10 10 6 0 10 -4 10 -10z m954 -5 c11
-1 25 -3 30 -4 5 0 3 -8 -4 -16 -10 -12 -10 -15 1 -16 44 -2 95 -17 87 -25 -3
-2 -18 0 -33 6 -23 9 -28 7 -32 -9 -4 -15 -12 -19 -40 -16 -37 3 -72 25 -39
25 15 0 16 3 6 15 -7 8 -18 15 -25 15 -16 0 -37 25 -28 33 3 4 17 4 31 0 14
-3 34 -7 46 -8z m-3981 -37 c-3 -16 -9 -28 -14 -28 -12 0 -11 4 3 35 14 31 18
29 11 -7z m932 12 c-3 -5 -10 -10 -16 -10 -5 0 -9 5 -9 10 0 6 7 10 16 10 8 0
12 -4 9 -10z m460 -10 c-3 -5 -10 -10 -16 -10 -5 0 -9 5 -9 10 0 6 7 10 16 10
8 0 12 -4 9 -10z m-505 -16 c0 -8 -5 -12 -10 -9 -6 4 -8 11 -5 16 9 14 15 11
15 -7z m3200 -34 c0 -4 -10 -6 -22 -2 -14 3 -19 2 -14 -6 4 -8 0 -12 -11 -12
-16 1 -15 3 6 20 22 19 41 19 41 0z m-2625 -20 c-3 -5 -12 -10 -18 -10 -7 0
-6 4 3 10 19 12 23 12 15 0z m-530 -29 c-9 -16 -25 -3 -18 15 4 10 9 12 15 6
6 -6 7 -15 3 -21z m689 14 c-4 -8 -12 -15 -19 -15 -16 0 -40 -28 -32 -37 4 -3
18 2 31 11 17 11 32 13 48 7 l22 -8 -27 -25 c-15 -14 -36 -24 -49 -22 -13 1
-27 3 -32 3 -4 1 -6 7 -3 15 3 8 1 16 -6 19 -13 4 1 21 43 49 31 21 31 21 24
3z m2458 -10 c4 -18 0 -26 -13 -30 -11 -4 -19 -10 -19 -15 0 -4 -9 -6 -20 -3
-22 6 -28 25 -7 22 18 -3 48 12 42 21 -3 5 -18 5 -34 0 -44 -12 -48 3 -4 16
21 7 41 12 44 13 4 1 9 -10 11 -24z m-4042 -25 c-6 -10 -19 -22 -30 -25 -11
-3 -20 -11 -20 -16 0 -5 -7 -9 -15 -9 -22 0 -19 8 16 45 34 35 67 38 49 5z
m3146 13 c-7 -7 -77 -5 -85 2 -2 3 17 5 44 5 27 0 45 -3 41 -7z m-1676 -9 c0
-4 -8 -13 -17 -20 -17 -12 -16 -13 5 -14 12 0 22 5 22 10 0 15 17 12 23 -4 4
-10 1 -13 -8 -9 -9 3 -18 -3 -22 -13 -12 -33 -46 -54 -75 -48 -17 3 -28 1 -28
-5 0 -6 7 -11 16 -11 8 0 12 -4 9 -10 -4 -6 -13 -5 -26 3 -16 10 -21 9 -29 -3
-5 -8 -13 -11 -17 -6 -4 5 -2 11 6 14 7 2 22 13 32 23 11 11 24 19 29 19 6 0
10 5 10 10 0 6 -5 10 -11 10 -8 0 -8 4 0 14 9 11 9 15 -1 20 -7 3 -1 4 14 3
15 -2 27 -1 26 2 -2 16 4 21 22 21 11 0 20 -3 20 -6z m-601 -45 c-17 -33 -28
-31 -18 3 5 18 9 35 9 38 0 3 4 -2 9 -9 6 -9 6 -22 0 -32z m2270 25 c2 -2 -27
-4 -65 -3 -44 0 -62 3 -49 8 18 7 104 3 114 -5z m-1946 -14 c-3 -11 -12 -20
-19 -20 -8 0 -14 -7 -14 -15 0 -8 -4 -15 -10 -15 -15 0 -12 9 11 41 24 34 39
38 32 9z m166 6 c10 -12 8 -13 -8 -9 -12 3 -18 9 -15 14 7 12 10 11 23 -5z
m-242 -2 c-3 -3 -12 -4 -19 -1 -8 3 -5 6 6 6 11 1 17 -2 13 -5z m2633 -24 c0
-10 -4 -22 -10 -25 -6 -4 -10 7 -10 25 0 18 4 29 10 25 6 -3 10 -15 10 -25z
m-2670 4 c0 -8 -5 -12 -10 -9 -6 4 -8 11 -5 16 9 14 15 11 15 -7z m595 -4
c-10 -11 -22 -17 -26 -14 -15 9 -10 22 9 27 33 9 35 7 17 -13z m1405 0 c11 -8
6 -10 -22 -8 -20 1 -34 6 -32 10 7 11 36 10 54 -2z m-3171 -26 c-15 -18 -22
-13 -13 10 3 9 10 13 16 10 5 -3 4 -12 -3 -20z m1069 14 c-6 -18 -28 -21 -28
-4 0 9 7 16 16 16 9 0 14 -5 12 -12z m-38 -18 c0 -11 -4 -20 -9 -20 -14 0 -23
18 -16 30 10 17 25 11 25 -10z m600 5 c0 -8 -7 -15 -16 -15 -14 0 -14 -2 -3
-16 11 -14 10 -18 -6 -30 -11 -7 -26 -18 -33 -25 -7 -6 -15 -9 -17 -7 -5 5 18
33 36 44 15 8 15 11 3 22 -8 7 -14 8 -14 2 0 -5 -7 -10 -17 -10 -14 0 -14 2 2
20 10 11 21 17 26 15 4 -3 10 -1 14 5 9 15 25 12 25 -5z m-230 -7 c0 -11 -57
-10 -64 1 -3 5 10 9 29 8 19 -1 35 -5 35 -9z m306 -15 c-33 -17 -34 -27 -1
-21 14 3 25 1 25 -3 0 -5 5 -9 11 -9 6 0 9 7 5 15 -3 8 -1 15 4 15 6 0 10 -9
10 -20 0 -11 -5 -20 -12 -20 -6 0 -23 -10 -36 -22 l-24 -23 6 22 c9 29 -11 39
-34 18 -32 -29 -43 -12 -13 21 32 36 64 55 77 47 5 -3 -3 -12 -18 -20z m159
17 c-3 -5 -11 -10 -16 -10 -6 0 -7 5 -4 10 3 6 11 10 16 10 6 0 7 -4 4 -10z
m-770 -11 c9 -13 6 -15 -25 -23 -14 -3 -19 -3 -12 0 6 3 12 12 12 20 0 16 16
19 25 3z m2095 -2 c0 -5 6 -7 12 -5 7 3 18 0 24 -6 9 -8 -1 -14 -35 -22 -25
-7 -36 -12 -23 -13 37 -2 25 -21 -15 -23 -37 -1 -37 -1 -5 -5 62 -8 31 -22
-35 -16 -68 6 -110 19 -99 31 4 3 12 0 18 -6 15 -15 58 -16 58 -2 0 6 -7 13
-16 17 -8 3 -13 12 -10 19 3 8 0 14 -6 14 -7 0 -3 6 7 14 20 14 125 17 125 3z
m-1794 -16 c-3 -5 -15 -7 -26 -4 -28 7 -25 13 6 13 14 0 23 -4 20 -9z m-2414
-53 c3 -27 2 -48 -3 -48 -5 0 -9 23 -9 52 0 62 5 60 12 -4z m5093 42 c-3 -5
-10 -10 -16 -10 -5 0 -9 5 -9 10 0 6 7 10 16 10 8 0 12 -4 9 -10z m-2529 -15
c-11 -8 -27 -15 -35 -15 -13 1 -12 4 3 15 11 8 27 15 35 15 13 -1 12 -4 -3
-15z m2351 -11 c-3 -3 -12 -4 -19 -1 -8 3 -5 6 6 6 11 1 17 -2 13 -5z m-670
-20 c-3 -3 -12 -4 -19 -1 -8 3 -5 6 6 6 11 1 17 -2 13 -5z m693 2 c0 -3 -4 -8
-10 -11 -5 -3 -10 -1 -10 4 0 6 5 11 10 11 6 0 10 -2 10 -4z m-2413 -12 c-3
-3 -12 -4 -19 -1 -8 3 -5 6 6 6 11 1 17 -2 13 -5z m243 -12 c-8 -3 -18 -10
-22 -16 -5 -7 -8 -5 -8 6 0 18 19 29 35 20 5 -3 2 -8 -5 -10z m40 14 c0 -3 -4
-8 -10 -11 -5 -3 -10 -1 -10 4 0 6 5 11 10 11 6 0 10 -2 10 -4z m2260 -1 c0
-3 -7 -22 -15 -42 -10 -22 -13 -49 -9 -70 7 -39 -7 -44 -26 -8 -7 13 -17 22
-21 19 -4 -2 -10 0 -14 6 -3 5 -1 10 4 10 6 0 11 9 11 19 0 24 16 36 23 19 3
-7 6 -4 6 8 1 11 6 25 13 32 12 12 28 16 28 7z m-2940 -9 c0 -3 -4 -8 -10 -11
-5 -3 -10 -1 -10 4 0 6 5 11 10 11 6 0 10 -2 10 -4z m1914 -3 c3 -4 19 -7 34
-8 130 -5 128 -5 110 -19 -28 -21 -11 -25 32 -9 28 11 43 12 56 4 17 -9 16
-10 -8 -11 -16 0 -28 -4 -28 -10 0 -5 3 -10 8 -10 4 0 15 -14 25 -31 17 -30
16 -32 -4 -60 l-20 -29 21 0 c13 0 18 -4 15 -11 -4 -6 -27 -9 -57 -6 -27 3
-62 1 -79 -3 -18 -5 -27 -5 -24 1 4 5 -7 9 -24 9 -36 0 -49 16 -21 25 11 3 20
11 20 17 0 7 -4 7 -12 0 -20 -16 -68 -3 -61 16 5 12 1 14 -19 9 -27 -7 -35 2
-44 53 -3 14 -9 27 -15 28 -5 2 -9 8 -9 13 0 5 11 4 25 -1 16 -6 25 -6 25 0 0
6 9 10 20 10 13 0 18 5 14 15 -6 15 7 21 20 8z m231 -3 c-3 -5 -14 -10 -23
-10 -15 0 -15 2 -2 10 20 13 33 13 25 0z m673 -16 c3 3 0 6 -7 6 -7 0 -9 5 -5
11 12 20 32 -14 38 -64 4 -41 2 -47 -9 -37 -8 7 -19 9 -24 5 -6 -3 -16 3 -23
15 -7 11 -18 20 -25 20 -6 0 -15 5 -19 12 -5 8 -2 9 10 5 11 -4 15 -3 10 4 -3
6 -15 8 -26 6 -11 -3 -17 -3 -14 0 3 4 1 12 -5 20 -8 9 -8 13 -1 13 6 0 14 -4
17 -10 3 -5 11 -10 17 -10 7 0 6 6 -2 15 -11 13 -8 13 25 -1 20 -8 40 -13 43
-10z m-2456 -16 c-7 -7 -12 -8 -12 -2 0 6 3 14 7 17 3 4 9 5 12 2 2 -3 -1 -11
-7 -17z m398 18 c0 -3 -4 -8 -10 -11 -5 -3 -10 -1 -10 4 0 6 5 11 10 11 6 0
10 -2 10 -4z m-298 -24 c-7 -2 -12 -10 -12 -18 0 -8 -6 -11 -15 -8 -8 4 -15
10 -15 15 0 5 7 9 15 9 8 0 15 5 15 11 0 5 5 7 12 3 9 -6 9 -9 0 -12z m138 4
c0 -11 -19 -15 -25 -6 -3 5 1 10 9 10 9 0 16 -2 16 -4z m-270 -21 c0 -8 -4
-15 -10 -15 -5 0 -7 7 -4 15 4 8 8 15 10 15 2 0 4 -7 4 -15z m350 -9 c0 -3 -4
-8 -10 -11 -5 -3 -10 -1 -10 4 0 6 5 11 10 11 6 0 10 -2 10 -4z m-2653 -138
c-2 -24 -4 -5 -4 42 0 47 2 66 4 43 2 -24 2 -62 0 -85z m817 17 c3 -11 -3 -2
-14 20 -11 22 -19 51 -19 65 0 17 4 11 13 -20 7 -25 16 -54 20 -65z m1060 90
c-7 -16 -44 -41 -44 -29 0 9 33 43 42 43 4 1 5 -6 2 -14z m145 12 c-2 -1 -12
-9 -22 -16 -15 -12 -17 -12 -11 3 3 9 13 16 22 16 8 0 13 -1 11 -3z m2696 -9
c14 -6 25 -15 25 -20 0 -13 -10 -10 -37 12 -29 23 -25 25 12 8z m-2395 -2 c0
-3 -4 -8 -10 -11 -5 -3 -10 -1 -10 4 0 6 5 11 10 11 6 0 10 -2 10 -4z m-370
-20 c0 -3 -7 -12 -16 -20 -22 -23 -37 -20 -16 3 16 18 32 26 32 17z m98 -27
c3 -8 1 -11 -3 -7 -4 4 -17 -3 -29 -16 -11 -12 -29 -20 -38 -18 -10 2 -18 -1
-18 -7 0 -6 8 -11 18 -11 15 -1 15 -2 -2 -15 -29 -22 -49 -20 -36 4 16 31 12
35 -16 16 -35 -23 -36 -16 -1 20 16 17 27 25 23 18 -3 -6 -2 -14 4 -18 6 -3
11 4 11 17 1 17 3 18 6 6 5 -21 8 -21 34 -8 10 6 19 18 19 26 0 19 22 14 28
-7z m2750 -10 c13 -21 13 -21 -12 -3 -27 20 -35 37 -13 28 7 -2 18 -14 25 -25z
m-2515 -14 c-3 -9 -8 -14 -10 -11 -3 3 -2 9 2 15 9 16 15 13 8 -4z m2630 -37
c15 -29 29 -69 33 -88 3 -19 13 -53 21 -75 8 -22 17 -83 20 -135 5 -90 3 -100
-31 -194 -20 -54 -45 -114 -55 -135 -28 -53 -71 -173 -71 -199 0 -12 -5 -22
-11 -22 -5 0 -8 4 -5 8 3 5 1 22 -4 38 -10 29 -10 29 -5 -5 4 -28 2 -32 -13
-26 -13 5 -14 3 -6 -5 9 -9 8 -18 -2 -38 -8 -15 -14 -33 -14 -40 0 -20 -29
-72 -40 -72 -6 0 -10 12 -10 26 0 14 4 23 10 19 15 -10 12 6 -6 26 -11 12 -13
23 -6 34 8 16 11 15 26 -6 25 -37 19 -13 -9 31 -29 46 -32 62 -9 53 14 -5 15
-3 4 17 -7 13 -13 37 -14 54 -2 17 -8 48 -15 69 -17 49 -11 63 16 37 12 -11
26 -20 31 -20 6 0 12 -10 15 -22 4 -12 9 -19 13 -15 3 3 3 14 -1 24 -14 31
-15 64 -2 56 9 -5 9 -3 1 8 -18 24 -24 48 -12 55 7 5 8 2 3 -6 -5 -9 -4 -11 4
-6 6 4 9 12 5 17 -3 5 -8 21 -10 36 -4 23 -3 25 11 13 8 -7 15 -9 15 -4 0 12
-20 42 -20 31 0 -5 -5 -5 -11 -1 -8 5 -6 10 5 16 14 8 13 13 -9 46 -27 40 -32
57 -12 46 6 -4 0 5 -14 20 -18 17 -25 34 -22 47 4 13 1 19 -7 17 -7 -2 -15 3
-18 11 -3 10 0 12 13 7 13 -5 16 -2 11 10 -5 14 -4 15 9 4 9 -7 14 -19 11 -27
-3 -7 0 -13 7 -13 7 0 17 -10 23 -23 9 -22 10 -23 26 -6 14 15 15 19 2 30 -12
10 -13 9 -9 -4 4 -8 2 -18 -3 -21 -5 -3 -14 10 -19 29 -11 34 -1 60 11 30 3
-8 11 -15 18 -15 9 0 10 3 2 8 -6 4 -14 17 -18 29 -6 19 -4 22 10 16 12 -4 15
-3 10 5 -4 7 -14 12 -22 12 -8 0 -14 5 -14 10 0 15 7 13 48 -15 42 -29 54 -31
46 -10 -4 8 -12 15 -20 15 -8 0 -14 9 -14 20 0 23 15 27 24 5 3 -8 10 -15 16
-15 6 0 0 12 -14 27 -14 15 -22 31 -19 36 3 5 -4 6 -18 2 -21 -7 -22 -6 -7 9
9 9 24 13 32 10 9 -3 16 -1 16 5 0 6 -4 11 -10 11 -5 0 -10 5 -10 11 0 7 -8
18 -17 26 -10 8 -3 6 15 -3 17 -10 32 -21 32 -25 0 -4 9 -9 19 -12 18 -4 18
-3 4 30 -19 47 -11 65 12 25 33 -55 36 -35 4 23 -21 39 -26 55 -16 55 7 0 26
-24 40 -52z m-2796 20 c-3 -8 -6 -5 -6 6 -1 11 2 17 5 13 3 -3 4 -12 1 -19z
m47 0 c-3 -5 -12 -4 -20 3 -19 16 -18 18 6 12 11 -3 17 -9 14 -15z m33 2 c1
-11 -2 -22 -8 -25 -5 -4 -9 5 -9 19 0 30 15 35 17 6z m53 10 c0 -5 -8 -10 -17
-10 -15 0 -16 2 -3 10 19 12 20 12 20 0z m-1290 -171 c0 -18 -20 -8 -65 33
-26 24 -54 56 -62 73 -13 24 -3 18 56 -34 39 -35 71 -67 71 -72z m1560 122 c0
-5 -7 -11 -14 -14 -10 -4 -13 -1 -9 9 6 15 23 19 23 5z m-512 -47 c-7 -15 -19
-30 -26 -32 -11 -3 -12 0 -3 17 9 16 9 21 -1 21 -7 0 -2 9 12 20 29 22 37 12
18 -26z m-132 11 c-21 -16 -32 -13 -21 4 3 6 14 11 23 11 15 -1 15 -2 -2 -15z
m164 5 c0 -5 -5 -10 -11 -10 -5 0 -7 5 -4 10 3 6 8 10 11 10 2 0 4 -4 4 -10z
m46 -35 c-9 -7 -16 -21 -16 -33 0 -11 -8 -23 -17 -27 -15 -5 -16 -4 -5 6 6 7
12 20 12 29 0 12 -2 12 -9 2 -6 -10 -10 -9 -14 7 -3 12 -1 19 4 15 5 -3 9 0 9
6 0 7 8 9 22 5 16 -6 20 -4 15 8 -3 8 -3 18 1 22 4 4 9 -1 11 -11 2 -10 -4
-23 -13 -29z m83 2 c0 -21 -1 -21 -9 -2 -12 28 -12 37 0 30 6 -3 10 -16 9 -28z
m68 1 c-3 -8 -6 -5 -6 6 -1 11 2 17 5 13 3 -3 4 -12 1 -19z m1668 -26 c17 -1
54 -8 83 -15 49 -13 57 -13 93 5 40 19 75 20 72 2 -1 -5 17 -9 40 -9 62 -1 75
-9 69 -40 -4 -26 -7 -27 -48 -22 -24 2 -41 1 -39 -3 6 -9 -25 -23 -33 -15 -3
3 0 5 7 5 7 0 9 4 6 10 -8 14 -34 -11 -28 -28 4 -8 0 -10 -11 -6 -10 4 -15 13
-12 20 7 19 -49 29 -162 29 -71 0 -97 -4 -105 -15 -7 -8 -19 -15 -27 -15 -8 0
-14 -7 -12 -16 1 -9 -5 -22 -13 -29 -11 -9 -15 -9 -15 -1 0 7 -3 10 -8 7 -4
-2 -15 1 -24 8 -21 15 -35 86 -18 86 7 0 10 6 7 14 -4 9 0 12 12 9 10 -2 24 2
32 9 28 27 63 37 84 23 11 -6 34 -12 50 -13z m-2647 -3 c12 -18 11 -20 -5 -17
-10 2 -19 11 -21 21 -5 23 10 21 26 -4z m224 -1 c-7 -7 -12 -8 -12 -2 0 14 12
26 19 19 2 -3 -1 -11 -7 -17z m646 -8 c-13 -10 -25 -16 -27 -14 -7 7 31 44 41
38 4 -3 -2 -14 -14 -24z m159 8 c-3 -8 -6 -5 -6 6 -1 11 2 17 5 13 3 -3 4 -12
1 -19z m-404 -8 c-3 -12 -8 -19 -11 -16 -5 6 5 36 12 36 2 0 2 -9 -1 -20z
m491 -6 c3 -8 2 -12 -4 -9 -6 3 -10 10 -10 16 0 14 7 11 14 -7z m-220 -19
c-19 -29 -20 -29 -30 -13 -4 6 -3 8 3 5 6 -4 13 2 16 13 3 11 10 20 16 20 7 0
5 -10 -5 -25z m201 5 c3 -6 -1 -7 -9 -4 -18 7 -21 14 -7 14 6 0 13 -4 16 -10z
m66 -13 c-10 -9 -11 -8 -5 6 3 10 9 15 12 12 3 -3 0 -11 -7 -18z m2369 -7 c0
-5 -4 -10 -10 -10 -5 0 -10 5 -10 10 0 6 5 10 10 10 6 0 10 -4 10 -10z m-2820
-4 c0 -3 -4 -8 -10 -11 -5 -3 -10 -1 -10 4 0 6 5 11 10 11 6 0 10 -2 10 -4z
m140 -1 c0 -3 -9 -14 -20 -25 -22 -22 -25 -19 -10 11 10 17 30 27 30 14z
m-2030 -20 c11 -13 8 -15 -13 -15 -19 0 -25 4 -21 15 4 8 10 15 14 15 4 0 13
-7 20 -15z m2176 -11 c-4 -9 -9 -15 -11 -12 -3 3 -3 13 1 22 4 9 9 15 11 12 3
-3 3 -13 -1 -22z m-566 -4 c-6 -11 -13 -20 -16 -20 -2 0 0 9 6 20 6 11 13 20
16 20 2 0 0 -9 -6 -20z m1090 0 c0 -5 -5 -10 -11 -10 -5 0 -7 5 -4 10 3 6 8
10 11 10 2 0 4 -4 4 -10z m-566 -22 c-4 -7 -9 -21 -9 -30 -2 -21 -13 -34 -21
-25 -4 4 -1 14 7 24 13 15 12 16 -6 9 -17 -6 -16 -3 5 17 26 25 38 28 24 5z
m2441 12 c3 -5 1 -10 -4 -10 -6 0 -11 5 -11 10 0 6 2 10 4 10 3 0 8 -4 11 -10z
m35 -10 c0 -5 -4 -10 -10 -10 -5 0 -10 5 -10 10 0 6 5 10 10 10 6 0 10 -4 10
-10z m-2920 -20 c0 -5 -5 -10 -11 -10 -5 0 -7 5 -4 10 3 6 8 10 11 10 2 0 4
-4 4 -10z m290 1 c0 -13 -20 -18 -50 -12 -25 5 -25 5 5 12 44 10 45 10 45 0z
m230 -1 c0 -5 -9 -14 -20 -20 -23 -12 -26 -6 -7 15 14 17 27 19 27 5z m-2123
-35 c8 -23 -4 -30 -22 -12 -19 20 -19 27 0 27 9 0 18 -7 22 -15z m813 -5 c0
-5 5 -10 11 -10 6 0 29 -16 52 -35 22 -19 46 -35 53 -35 7 0 17 -8 23 -17 9
-17 10 -17 17 1 6 16 9 14 18 -15 9 -27 20 -36 59 -49 53 -19 93 -52 83 -69
-12 -18 -45 -13 -84 14 -20 14 -44 25 -53 25 -10 0 -27 12 -38 28 -11 15 -21
21 -21 15 0 -13 -21 1 -59 38 -9 9 -24 19 -34 22 -10 4 -15 11 -12 17 3 5 -3
10 -14 10 -14 0 -21 6 -21 19 0 11 -5 23 -10 26 -6 4 -8 11 -5 16 8 12 35 12
35 -1z m794 -15 c-4 -8 -11 -15 -16 -15 -6 0 -5 6 2 15 7 8 14 15 16 15 2 0 1
-7 -2 -15z m326 -15 c0 -5 -5 -10 -11 -10 -5 0 -7 5 -4 10 3 6 8 10 11 10 2 0
4 -4 4 -10z m-350 -14 c0 -3 -4 -8 -10 -11 -5 -3 -10 -1 -10 4 0 6 5 11 10 11
6 0 10 -2 10 -4z m1120 -15 c0 -5 -13 -14 -29 -19 -35 -12 -69 -70 -45 -79 7
-3 14 -10 14 -15 0 -6 -6 -5 -15 2 -13 10 -15 9 -15 -8 0 -14 -5 -20 -14 -16
-8 3 -17 1 -21 -5 -3 -6 -2 -11 3 -11 6 0 12 -6 15 -14 4 -10 0 -12 -14 -9
-25 7 -24 33 1 60 11 12 15 23 10 25 -14 5 73 96 93 97 9 1 17 -3 17 -8z
m-140 -21 c0 -5 -2 -10 -4 -10 -3 0 -8 5 -11 10 -3 6 -1 10 4 10 6 0 11 -4 11
-10z m-985 -10 c-3 -5 -14 -10 -23 -10 -15 0 -15 2 -2 10 20 13 33 13 25 0z
m-318 -42 c-3 -7 -5 -2 -5 12 0 14 2 19 5 13 2 -7 2 -19 0 -25z m441 23 c9 -5
3 -8 -18 -9 -17 0 -28 4 -25 9 8 11 26 11 43 0z m307 0 c3 -5 1 -12 -5 -16 -5
-3 -10 1 -10 9 0 18 6 21 15 7z m-354 -41 c-13 -11 -28 -20 -33 -20 -6 0 0 9
13 20 13 10 29 19 34 19 6 0 -1 -9 -14 -19z m2517 -9 c3 -10 -4 -12 -32 -9
-48 5 -46 -6 5 -26 44 -18 48 -31 6 -21 -33 9 -61 40 -53 60 7 20 67 17 74 -4z
m-4088 -11 c0 -5 -4 -10 -10 -10 -5 0 -10 5 -10 10 0 6 5 10 10 10 6 0 10 -4
10 -10z m1593 -27 c-9 -7 -19 -10 -22 -7 -3 4 -1 9 6 11 7 2 9 12 6 21 -6 14
-5 15 9 2 15 -14 16 -16 1 -27z m2631 21 c5 -12 2 -15 -11 -10 -15 5 -15 4 1
-9 27 -21 13 -31 -16 -11 -12 9 -36 16 -52 16 -52 0 -22 13 65 29 4 0 10 -6
13 -15z m-2567 -20 c-3 -3 -12 -4 -19 -1 -8 3 -5 6 6 6 11 1 17 -2 13 -5z
m2384 -20 c29 -23 31 -25 9 -19 l-25 7 23 -23 c19 -21 24 -22 33 -9 9 13 10
13 6 0 -4 -17 -47 -27 -47 -11 0 6 -9 20 -20 31 -11 11 -15 20 -9 20 8 0 8 5
-1 15 -18 22 -8 18 31 -11z m-2340 -7 c-10 -9 -11 -8 -5 6 3 10 9 15 12 12 3
-3 0 -11 -7 -18z m-226 3 c-3 -5 -12 -10 -18 -10 -7 0 -6 4 3 10 19 12 23 12
15 0z m70 -30 c-10 -11 -20 -18 -23 -15 -3 3 3 14 13 25 10 11 20 18 23 15 3
-3 -3 -14 -13 -25z m2685 7 c10 -4 8 -6 -6 -6 -12 -1 -25 6 -28 15 -5 13 -3
14 6 7 7 -6 20 -13 28 -16z m-2550 -1 c0 -2 -8 -10 -17 -17 -16 -13 -17 -12
-4 4 13 16 21 21 21 13z m820 -12 c0 -14 -3 -14 -15 -4 -8 7 -15 14 -15 16 0
2 7 4 15 4 8 0 15 -7 15 -16z m17 -36 c-3 -7 -5 -2 -5 12 0 14 2 19 5 13 2 -7
2 -19 0 -25z m-903 13 c3 -4 -3 -16 -14 -26 -11 -10 -17 -22 -13 -28 3 -6 1
-7 -6 -3 -6 4 -20 2 -29 -4 -9 -7 1 5 23 25 32 31 36 37 17 32 -12 -3 -20 -1
-16 4 7 11 31 12 38 0z m2441 -41 c13 0 27 -4 30 -10 3 -5 1 -10 -6 -10 -7 0
-6 -8 5 -25 16 -25 16 -25 -11 -24 -19 1 -22 3 -10 6 17 4 16 8 -9 34 -15 16
-33 29 -41 29 -7 0 -17 9 -23 19 -17 34 -11 37 15 8 14 -15 36 -27 50 -27z
m-1560 31 c3 -5 1 -12 -5 -16 -5 -3 -10 1 -10 9 0 18 6 21 15 7z m1570 -11 c2
-4 -7 -5 -20 -2 -14 2 -25 8 -25 12 0 10 38 1 45 -10z m140 10 c3 -6 -1 -7 -9
-4 -18 7 -21 14 -7 14 6 0 13 -4 16 -10z m-3461 -32 c-10 -16 -22 -7 -17 13 4
15 8 17 14 8 4 -7 5 -17 3 -21z m676 18 c0 -2 -8 -10 -17 -17 -16 -13 -17 -12
-4 4 13 16 21 21 21 13z m390 -6 c0 -5 -5 -10 -11 -10 -5 0 -7 5 -4 10 3 6 8
10 11 10 2 0 4 -4 4 -10z m2690 0 c0 -5 -2 -10 -4 -10 -3 0 -8 5 -11 10 -3 6
-1 10 4 10 6 0 11 -4 11 -10z m-2800 -9 c0 -5 -9 -11 -20 -14 -22 -6 -28 8 -7
16 19 8 27 8 27 -2z m-1620 -11 c0 -5 -4 -10 -10 -10 -5 0 -10 5 -10 10 0 6 5
10 10 10 6 0 10 -4 10 -10z m1235 -49 c-3 -6 -11 -11 -17 -11 -6 0 -6 6 2 15
14 17 26 13 15 -4z m2930 9 c3 -5 2 -10 -4 -10 -5 0 -13 5 -16 10 -3 6 -2 10
4 10 5 0 13 -4 16 -10z m64 -17 c2 -2 -3 -3 -11 -3 -9 0 -19 7 -22 16 -6 15
-4 15 11 3 10 -7 20 -15 22 -16z m-2746 -10 c-13 -9 -23 -22 -23 -29 0 -8 -8
-14 -17 -14 -13 0 -9 9 17 35 18 19 36 32 39 29 3 -4 -4 -13 -16 -21z m2652
17 c3 -6 -1 -7 -9 -4 -18 7 -21 14 -7 14 6 0 13 -4 16 -10z m-2530 -20 c-3 -5
-11 -10 -16 -10 -6 0 -7 5 -4 10 3 6 11 10 16 10 6 0 7 -4 4 -10z m-420 -10
c-3 -5 -12 -10 -18 -10 -7 0 -6 4 3 10 19 12 23 12 15 0z m359 -24 c-3 -14
-10 -26 -15 -26 -12 0 -11 4 3 35 14 31 21 26 12 -9z m2472 18 c10 -8 13 -12
6 -9 -8 4 -26 11 -40 15 -22 7 -23 8 -6 9 11 1 29 -6 40 -15z m154 -4 c0 -5
-2 -10 -4 -10 -3 0 -8 5 -11 10 -3 6 -1 10 4 10 6 0 11 -4 11 -10z m-2513 -20
c2 -20 -8 -26 -20 -13 -4 3 -2 12 4 20 15 17 14 17 16 -7z m-372 -10 c-9 -15
-45 -32 -45 -22 0 5 10 14 23 20 29 14 29 14 22 2z m-102 -30 c-18 -17 -36
-30 -40 -30 -8 1 58 59 67 60 3 0 -9 -14 -27 -30z m2821 14 c5 -14 4 -15 -9
-4 -17 14 -19 20 -6 20 5 0 12 -7 15 -16z m57 -21 c13 -16 12 -17 -3 -5 -9 8
-23 10 -29 6 -8 -4 -9 -3 -5 4 10 17 21 15 37 -5z m-2483 -13 c-7 -10 -14 -17
-17 -15 -4 4 18 35 25 35 2 0 -1 -9 -8 -20z m212 -4 c0 -2 -8 -10 -17 -17 -16
-13 -17 -12 -4 4 13 16 21 21 21 13z m2195 -16 c3 -5 2 -10 -4 -10 -5 0 -13 5
-16 10 -3 6 -2 10 4 10 5 0 13 -4 16 -10z m-2610 -10 c-3 -5 -11 -10 -16 -10
-6 0 -7 5 -4 10 3 6 11 10 16 10 6 0 7 -4 4 -10z m452 -22 c-3 -8 -6 -5 -6 6
-1 11 2 17 5 13 3 -3 4 -12 1 -19z m-47 8 c0 -2 -8 -10 -17 -17 -16 -13 -17
-12 -4 4 13 16 21 21 21 13z m2201 -26 c15 -9 17 -8 12 6 -5 13 -2 15 17 9 15
-5 20 -4 16 4 -4 6 -1 11 8 11 8 0 18 -5 21 -11 4 -6 14 -8 22 -5 11 4 13 2 9
-9 -3 -10 1 -15 13 -15 17 0 51 -38 51 -57 0 -4 -5 -1 -10 7 -9 13 -11 13 -20
0 -6 -10 -6 -16 0 -18 6 -2 10 -16 10 -30 0 -21 2 -24 10 -12 8 13 10 12 10
-2 0 -12 -8 -18 -22 -18 -21 0 -21 0 -2 -15 10 -8 14 -15 7 -15 -16 0 -66 54
-54 58 17 6 0 32 -20 32 -11 0 -29 9 -41 19 -11 11 -27 17 -35 14 -9 -4 -13 0
-11 10 2 9 -6 22 -16 30 -12 9 -16 19 -11 27 7 11 10 11 13 2 2 -7 12 -17 23
-22z m-2661 16 c0 -2 -7 -9 -15 -16 -13 -11 -14 -10 -9 4 5 14 24 23 24 12z
m1921 -15 c11 -12 14 -23 7 -35 -5 -8 -8 -22 -7 -28 5 -37 -2 -48 -28 -48 -16
0 -37 7 -47 15 -11 8 -14 15 -8 15 7 0 12 5 12 11 0 5 -4 8 -9 5 -5 -3 -11 0
-14 7 -7 18 11 59 23 52 5 -3 10 1 10 9 0 22 42 20 61 -3z m-2026 -1 c-3 -5
-12 -10 -18 -10 -7 0 -6 4 3 10 19 12 23 12 15 0z m1875 -20 c0 -19 -5 -30
-14 -30 -20 0 -29 16 -21 40 10 32 35 25 35 -10z m1060 20 c0 -5 -2 -10 -4
-10 -3 0 -8 5 -11 10 -3 6 -1 10 4 10 6 0 11 -4 11 -10z m-2900 -10 c0 -5 -5
-10 -11 -10 -5 0 -7 5 -4 10 3 6 8 10 11 10 2 0 4 -4 4 -10z m2164 -22 c-1
-10 2 -16 6 -13 4 3 11 -2 14 -11 3 -8 2 -12 -4 -9 -6 3 -10 -5 -10 -19 0 -26
-23 -56 -43 -56 -31 0 -58 14 -53 26 3 8 1 14 -4 14 -11 0 -1 60 13 78 16 20
82 11 81 -10z m-2204 -4 c0 -3 -20 -14 -45 -25 -25 -11 -45 -24 -45 -29 0 -6
-5 -10 -11 -10 -23 0 -1 25 42 47 45 23 59 27 59 17z m240 -24 c0 -5 -5 -10
-11 -10 -5 0 -7 5 -4 10 3 6 8 10 11 10 2 0 4 -4 4 -10z m2124 4 c8 -3 12 -12
10 -19 -3 -7 -1 -16 5 -20 12 -7 15 -54 5 -79 -7 -17 -34 -22 -34 -7 0 10 -38
7 -48 -4 -10 -9 -32 17 -32 39 0 11 5 38 11 59 8 32 14 37 39 37 15 0 35 -3
44 -6z m786 -36 c0 -13 -43 15 -48 31 -3 9 5 7 22 -4 14 -10 26 -22 26 -27z
m-3065 10 c-11 -6 -28 -18 -38 -26 -16 -14 -17 -14 -12 0 3 8 16 20 28 26 29
14 47 14 22 0z m58 -3 c-3 -9 -8 -14 -10 -11 -3 3 -2 9 2 15 9 16 15 13 8 -4z
m2807 -5 c0 -5 -4 -10 -10 -10 -5 0 -10 5 -10 10 0 6 5 10 10 10 6 0 10 -4 10
-10z m-2976 -9 c3 -5 -1 -11 -9 -14 -9 -4 -12 -1 -8 9 6 16 10 17 17 5z m164
-31 c-7 -11 -15 -20 -18 -21 -3 0 -16 -2 -29 -3 l-23 -3 23 18 c13 10 27 15
31 13 3 -2 9 0 13 6 3 5 8 10 11 10 2 0 -1 -9 -8 -20z m2350 -50 c-5 -63 -12
-92 -21 -79 -8 12 6 149 15 149 7 0 9 -25 6 -70z m-2243 52 c-6 -4 -31 -25
-58 -46 -26 -21 -45 -42 -42 -47 6 -8 1 -10 -37 -13 -7 -1 -19 -8 -26 -16 -11
-13 -12 -12 -7 8 8 27 -6 29 -30 2 -10 -11 -22 -20 -27 -20 -5 0 3 11 17 24
19 18 35 24 56 21 21 -3 36 3 52 20 22 23 95 75 105 75 3 0 2 -4 -3 -8z m2410
-2 c11 -5 14 -9 8 -9 -7 -1 -13 -8 -13 -18 0 -14 3 -14 22 3 12 10 18 13 13 5
-4 -8 -2 -17 6 -22 21 -13 39 -11 39 6 0 8 5 15 11 15 6 0 8 -9 4 -21 -5 -15
-4 -19 4 -15 14 9 14 -9 0 -73 -10 -46 -13 -51 -37 -49 -15 1 -31 5 -37 8 -5
4 -32 15 -59 24 -37 12 -53 13 -63 5 -10 -9 -13 -6 -13 13 0 13 -4 28 -10 34
-11 11 8 74 23 74 5 0 15 7 23 15 17 16 48 18 79 5z m-2485 -10 c0 -5 -5 -10
-11 -10 -5 0 -7 5 -4 10 3 6 8 10 11 10 2 0 4 -4 4 -10z m-410 -10 c0 -5 -4
-10 -10 -10 -5 0 -10 5 -10 10 0 6 5 10 10 10 6 0 10 -4 10 -10z m300 7 c0 -2
-10 -12 -21 -23 -22 -19 -22 -19 -10 4 10 18 31 31 31 19z m-881 -29 c0 -13
-4 -32 -9 -43 -7 -15 -9 -10 -9 23 -1 23 4 42 9 42 6 0 10 -10 9 -22z m791 18
c0 -3 -4 -8 -10 -11 -5 -3 -10 -1 -10 4 0 6 5 11 10 11 6 0 10 -2 10 -4z m40
0 c0 -3 -4 -8 -10 -11 -5 -3 -10 -1 -10 4 0 6 5 11 10 11 6 0 10 -2 10 -4z
m3188 -14 c6 -18 -15 -14 -22 4 -4 10 -1 14 6 12 6 -2 14 -10 16 -16z m-3123
-11 c-9 -8 -36 -10 -30 -2 2 4 11 8 20 8 8 0 13 -3 10 -6z m-90 -41 c-10 -11
-20 -18 -23 -16 -5 6 21 35 32 36 5 0 1 -9 -9 -20z m252 5 c0 -8 -3 -12 -7
-10 -4 3 -16 -5 -26 -16 -23 -25 -66 -51 -47 -28 11 14 13 19 13 42 0 9 2 9 8
-1 7 -9 13 -8 27 8 21 24 32 25 32 5z m2928 -4 c3 -5 1 -12 -5 -16 -5 -3 -10
1 -10 9 0 18 6 21 15 7z m115 -7 c0 -8 -4 -12 -10 -9 -5 3 -10 10 -10 16 0 5
5 9 10 9 6 0 10 -7 10 -16z m-2974 -20 c-4 -9 -9 -15 -11 -12 -3 3 -3 13 1 22
4 9 9 15 11 12 3 -3 3 -13 -1 -22z m-376 -9 c-13 -14 -26 -22 -29 -19 -3 3 5
14 19 24 34 27 38 25 10 -5z m192 -37 c-8 -8 -9 -4 -5 13 4 13 8 18 11 10 2
-7 -1 -18 -6 -23z m3038 25 c0 -17 -19 -37 -27 -29 -4 5 -2 11 5 13 6 3 10 9
6 14 -3 5 0 9 5 9 6 0 11 -3 11 -7z m-3216 -27 c-3 -9 -10 -16 -15 -16 -5 0
-4 9 3 20 14 22 21 20 12 -4z m336 14 c0 -5 -5 -10 -11 -10 -5 0 -7 5 -4 10 3
6 8 10 11 10 2 0 4 -4 4 -10z m3030 0 c0 -5 -2 -10 -4 -10 -3 0 -8 5 -11 10
-3 6 -1 10 4 10 6 0 11 -4 11 -10z m-3860 -21 c0 -5 -4 -9 -10 -9 -5 0 -10 7
-10 16 0 8 5 12 10 9 6 -3 10 -10 10 -16z m760 1 c0 -5 -12 -10 -27 -9 l-28 1
25 8 c14 4 26 8 28 9 1 1 2 -3 2 -9z m1080 0 c0 -5 -5 -10 -11 -10 -5 0 -7 5
-4 10 3 6 8 10 11 10 2 0 4 -4 4 -10z m-1423 -6 c-3 -3 -12 -4 -19 -1 -8 3 -5
6 6 6 11 1 17 -2 13 -5z m143 -19 c-13 -14 -26 -22 -29 -19 -3 3 5 14 19 24
34 27 38 25 10 -5z m2645 16 c3 -6 -4 -9 -15 -8 -11 1 -20 5 -20 9 0 11 28 10
35 -1z m182 2 c-4 -3 -2 -12 3 -18 7 -9 6 -16 -5 -25 -8 -7 -15 -19 -15 -27 0
-10 -6 -13 -17 -9 -16 5 -16 5 0 -8 15 -12 16 -18 7 -35 -7 -14 -7 -21 0 -21
5 0 10 4 10 8 0 5 10 19 21 31 22 23 22 23 1 17 -17 -6 -19 -3 -15 14 7 27 21
25 35 -5 6 -14 16 -25 21 -25 5 0 7 -11 5 -25 -3 -14 0 -25 6 -26 6 0 2 -4 -9
-9 -11 -5 -14 -9 -6 -9 7 -1 11 -7 7 -16 -3 -8 1 -21 8 -28 8 -8 12 -25 9 -40
-6 -29 -20 -36 -29 -14 -5 14 -74 19 -74 5 0 -4 -11 -2 -25 4 -14 6 -25 16
-25 21 0 6 -2 8 -5 5 -3 -3 -22 0 -43 7 -28 10 -36 18 -34 33 2 16 -1 19 -18
15 -11 -3 -20 0 -20 6 0 6 5 11 10 11 6 0 9 3 9 8 -4 23 3 42 14 40 6 -2 11 3
10 10 -2 6 3 12 11 12 8 0 18 5 22 12 4 6 3 8 -4 5 -18 -12 -42 4 -42 29 0 13
4 24 10 24 5 0 7 -6 4 -14 -3 -7 2 -16 10 -19 12 -5 16 0 16 20 0 21 2 24 15
13 9 -8 15 -8 15 -2 0 17 34 19 48 2 12 -13 13 -13 8 4 -4 13 -2 17 7 13 8 -3
20 -1 28 4 17 10 25 12 16 2z m-3110 -35 c-3 -8 -6 -5 -6 6 -1 11 2 17 5 13 3
-3 4 -12 1 -19z m393 13 c0 -5 -7 -11 -14 -14 -10 -4 -13 -1 -9 9 6 15 23 19
23 5z m90 -6 c0 -2 -13 -11 -30 -20 -16 -9 -30 -11 -30 -6 0 7 22 19 58 30 1
1 2 -1 2 -4z m-144 -30 c-9 -9 -16 -13 -16 -9 0 4 -8 1 -18 -7 -10 -8 -5 -2
12 13 31 29 50 31 22 3z m261 0 c0 -8 -4 -12 -9 -9 -5 3 -6 10 -3 15 9 13 12
11 12 -6z m-202 -5 c-3 -5 -16 -15 -28 -21 -19 -9 -19 -8 3 10 28 23 34 26 25
11z m1782 -12 c-3 -8 -6 -5 -6 6 -1 11 2 17 5 13 3 -3 4 -12 1 -19z m90 0 c-3
-8 -6 -5 -6 6 -1 11 2 17 5 13 3 -3 4 -12 1 -19z m53 13 c0 -6 -4 -13 -10 -16
-5 -3 -10 1 -10 9 0 9 5 16 10 16 6 0 10 -4 10 -9z m130 -5 c0 -11 -19 -15
-25 -6 -3 5 1 10 9 10 9 0 16 -2 16 -4z m-2843 -78 c-2 -13 -4 -3 -4 22 0 25
2 35 4 23 2 -13 2 -33 0 -45z m3938 52 c3 -5 1 -10 -4 -10 -6 0 -11 5 -11 10
0 6 2 10 4 10 3 0 8 -4 11 -10z m-1125 -10 c0 -5 -4 -10 -9 -10 -6 0 -13 5
-16 10 -3 6 1 10 9 10 9 0 16 -4 16 -10z m-2001 -3 c-2 -1 -11 -8 -21 -15 -12
-10 -18 -10 -24 -1 -4 7 -3 9 4 5 6 -3 13 -2 17 4 3 5 11 10 17 10 6 0 9 -1 7
-3z m2443 -59 c-5 -5 -8 0 -6 14 4 40 7 44 11 19 3 -13 1 -27 -5 -33z m-2505
10 c-3 -8 -6 -5 -6 6 -1 11 2 17 5 13 3 -3 4 -12 1 -19z m103 14 c0 -4 -9 -13
-21 -20 -19 -12 -19 -11 -9 8 10 19 30 28 30 12z m2049 -26 c-3 -3 -11 5 -18
17 -13 21 -12 21 5 5 10 -10 16 -20 13 -22z m-2019 10 c0 -2 -7 -9 -15 -16
-13 -11 -14 -10 -9 4 5 14 24 23 24 12z m1847 -28 c-3 -8 -6 -5 -6 6 -1 11 2
17 5 13 3 -3 4 -12 1 -19z m-1987 -3 c-7 -9 -15 -13 -17 -11 -7 7 7 26 19 26
6 0 6 -6 -2 -15z m295 5 c-3 -5 -11 -10 -16 -10 -6 0 -7 5 -4 10 3 6 11 10 16
10 6 0 7 -4 4 -10z m2248 -15 c15 -4 32 -16 38 -26 12 -24 2 -24 -35 0 -17 11
-33 18 -37 16 -4 -3 -12 1 -18 8 -12 15 3 16 52 2z m-2504 -16 c-7 -4 -17 -5
-22 -2 -5 3 -3 9 4 14 7 4 17 5 22 2 5 -3 3 -9 -4 -14z m87 -6 c-10 -10 -19 5
-10 18 6 11 8 11 12 0 2 -7 1 -15 -2 -18z m-461 -13 c3 -5 1 -10 -4 -10 -6 0
-11 5 -11 10 0 6 2 10 4 10 3 0 8 -4 11 -10z m3326 -73 c-14 -14 -17 -9 -25
38 l-7 40 21 -34 c15 -23 18 -37 11 -44z m-341 53 c0 -5 -2 -10 -4 -10 -3 0
-8 5 -11 10 -3 6 -1 10 4 10 6 0 11 -4 11 -10z m-20 -20 c0 -5 -7 -7 -15 -4
-8 4 -15 8 -15 10 0 2 7 4 15 4 8 0 15 -4 15 -10z m16 -81 c4 -6 -3 -6 -17 2
-13 7 -28 12 -32 11 -5 -1 -6 2 -2 8 7 11 39 -2 51 -21z m319 1 c10 -11 16
-20 13 -20 -3 0 -13 9 -23 20 -10 11 -16 20 -13 20 3 0 13 -9 23 -20z m-339
-35 c-5 15 -4 17 5 8 6 -6 17 -9 24 -7 6 3 18 -2 25 -11 7 -9 9 -15 4 -14 -24
4 -45 -2 -38 -12 3 -6 -16 4 -44 23 -27 18 -47 36 -45 41 2 4 21 -5 41 -20 31
-24 35 -25 28 -8z m340 -20 c4 -25 3 -27 -12 -14 -9 7 -12 15 -6 17 6 2 8 11
5 20 -3 9 -3 14 1 11 4 -4 9 -19 12 -34z m-2286 -13 c0 -4 -10 -13 -22 -21
-23 -14 -23 -14 -4 8 20 22 26 25 26 13z m2035 -2 c3 -5 1 -10 -4 -10 -6 0
-11 5 -11 10 0 6 2 10 4 10 3 0 8 -4 11 -10z m-130 -20 c3 -5 -3 -10 -14 -10
-11 0 -23 5 -26 10 -3 6 3 10 14 10 11 0 23 -4 26 -10z m386 -22 c0 -7 2 -28
4 -46 2 -23 0 -31 -7 -24 -14 14 -21 82 -8 82 5 0 10 -6 11 -12z m-331 -9 c0
-5 -4 -7 -10 -4 -5 3 -10 2 -10 -4 0 -5 6 -12 13 -14 7 -3 5 -6 -5 -6 -18 -1
-24 19 -11 32 10 10 23 8 23 -4z m-29 -63 c12 -16 16 -26 8 -26 -8 0 -7 -6 4
-18 18 -20 23 -57 7 -47 -17 11 -49 85 -37 85 6 0 -4 13 -23 30 -31 26 -32 28
-8 16 15 -7 37 -25 49 -40z m65 32 c4 -6 3 -8 -4 -4 -6 3 -15 -1 -20 -10 -7
-13 -13 -14 -28 -6 -18 11 -18 11 3 12 12 0 25 5 28 10 8 13 12 13 21 -2z
m-115 -25 c13 -15 12 -15 -8 -4 -24 12 -29 21 -14 21 5 0 15 -7 22 -17z m20
-47 c9 -19 9 -19 -4 -3 -8 9 -18 17 -24 17 -5 0 -18 7 -29 15 -17 13 -16 14
14 4 18 -6 37 -21 43 -33z m419 -27 c1 -15 -45 0 -57 18 -14 21 -14 21 21 5
19 -10 35 -20 36 -23z m-470 -10 c0 -6 -4 -7 -10 -4 -5 3 -10 11 -10 16 0 6 5
7 10 4 6 -3 10 -11 10 -16z m145 10 c11 -17 -1 -21 -15 -4 -8 9 -8 15 -2 15 6
0 14 -5 17 -11z m299 -18 c6 0 11 -6 12 -13 2 -7 6 -24 10 -38 7 -22 6 -24 -9
-11 -9 7 -17 18 -17 24 0 6 -10 22 -22 35 -21 22 -21 24 -3 14 11 -5 24 -10
29 -11z m-419 -1 c3 -5 1 -10 -4 -10 -6 0 -11 5 -11 10 0 6 2 10 4 10 3 0 8
-4 11 -10z m59 -14 c16 -13 27 -28 25 -32 -2 -5 -20 6 -39 24 -39 37 -29 43
14 8z m-84 0 c0 -3 -4 -8 -10 -11 -5 -3 -10 -1 -10 4 0 6 5 11 10 11 6 0 10
-2 10 -4z m-2520 -41 c0 -8 -2 -15 -4 -15 -2 0 -6 7 -10 15 -3 8 -1 15 4 15 6
0 10 -7 10 -15z m3020 -26 c0 -11 -4 -17 -10 -14 -5 3 -10 -1 -10 -9 0 -9 5
-16 10 -16 6 0 10 -5 10 -11 0 -6 -9 -8 -22 -3 -20 6 -21 5 -9 -10 7 -9 19
-16 27 -16 7 0 15 -4 18 -8 6 -10 -24 -9 -44 2 -8 4 -2 -4 14 -17 18 -16 26
-29 21 -38 -6 -9 -4 -11 8 -6 11 4 14 2 10 -9 -3 -7 -11 -14 -17 -14 -18 0
-61 43 -48 48 6 2 -4 18 -22 35 -39 37 -53 67 -31 67 17 0 19 12 5 26 -7 7 -4
10 9 9 12 -1 24 -5 28 -10 5 -4 2 -5 -4 -1 -16 9 -17 -6 -1 -22 19 -19 26 -15
33 18 7 33 25 32 25 -1z m-455 11 c3 -6 -1 -7 -9 -4 -18 7 -21 14 -7 14 6 0
13 -4 16 -10z m310 0 c3 -5 2 -10 -4 -10 -5 0 -13 5 -16 10 -3 6 -2 10 4 10 5
0 13 -4 16 -10z m-2800 -30 c3 -6 -1 -7 -9 -4 -18 7 -21 14 -7 14 6 0 13 -4
16 -10z m65 -50 c12 -8 11 -10 -7 -10 -13 0 -23 5 -23 10 0 13 11 13 30 0z
m-45 -20 c14 -16 15 -20 4 -20 -16 0 -39 19 -39 32 0 14 16 9 35 -12z m2785 0
c-9 -6 -9 -9 0 -15 8 -5 18 -1 25 8 7 9 15 14 18 10 4 -3 -2 -13 -13 -20 -18
-13 -24 -13 -45 1 -31 21 -31 24 1 24 16 0 21 -3 14 -8z m-1680 -40 c0 -5 -4
-10 -10 -10 -5 0 -10 5 -10 10 0 6 5 10 10 10 6 0 10 -4 10 -10z m1780 -32
c15 -25 20 -28 40 -28 6 0 10 -4 10 -10 0 -6 -9 -6 -26 0 -23 9 -25 8 -19 -11
5 -16 4 -20 -6 -15 -8 4 -5 0 6 -8 61 -49 85 -76 72 -82 -16 -6 -87 33 -87 47
0 5 -5 9 -11 9 -8 0 -7 -5 1 -15 11 -13 10 -14 -1 -10 -8 3 -19 17 -26 31 -10
22 -10 25 3 20 17 -6 19 5 3 21 -9 9 -6 10 12 6 24 -6 24 -6 -3 16 -15 12 -26
30 -25 39 2 27 39 20 57 -10z m-113 -10 c-3 -8 -6 -5 -6 6 -1 11 2 17 5 13 3
-3 4 -12 1 -19z m-2633 -34 c23 -9 20 -34 -4 -34 -13 0 -20 7 -20 20 0 22 1
23 24 14z m-64 -14 c0 -5 -4 -10 -10 -10 -5 0 -10 5 -10 10 0 6 5 10 10 10 6
0 10 -4 10 -10z m2743 -25 c1 -11 6 -27 11 -35 6 -11 4 -10 -9 2 -10 9 -19 29
-21 44 -3 31 14 20 19 -11z m-2633 5 c0 -5 -5 -10 -11 -10 -5 0 -7 5 -4 10 3
6 8 10 11 10 2 0 4 -4 4 -10z m2574 -29 c-2 -3 -12 3 -22 13 -16 17 -16 18 5
5 12 -7 20 -15 17 -18z m-2935 -7 c3 -16 1 -17 -13 -5 -19 16 -21 34 -3 29 6
-3 14 -13 16 -24z m251 -29 c0 -5 -5 -3 -10 5 -5 8 -10 20 -10 25 0 6 5 3 10
-5 5 -8 10 -19 10 -25z m2749 -4 c-6 -2 -21 7 -33 19 l-21 23 33 -19 c18 -10
28 -20 21 -23z m-2919 9 c0 -5 -4 -10 -10 -10 -5 0 -10 5 -10 10 0 6 5 10 10
10 6 0 10 -4 10 -10z m2865 0 c3 -5 2 -10 -4 -10 -5 0 -13 5 -16 10 -3 6 -2
10 4 10 5 0 13 -4 16 -10z m151 -25 c3 -7 0 -23 -6 -35 -11 -20 -12 -20 -36
15 -30 45 -31 54 -1 29 12 -10 16 -12 10 -4 -7 8 -13 18 -13 22 0 13 40 -11
46 -27z m-2736 10 c0 -9 -6 -12 -15 -9 -8 4 -12 10 -9 15 8 14 24 10 24 -6z
m-236 -11 c5 -14 4 -15 -9 -4 -17 14 -19 20 -6 20 5 0 12 -7 15 -16z m183 -8
c-4 -11 -1 -13 11 -9 15 6 15 4 4 -9 -12 -15 -15 -15 -31 0 -11 11 -13 20 -7
24 18 12 29 9 23 -6z m108 0 c18 -13 18 -14 -8 -9 -15 3 -27 9 -27 14 0 13 13
11 35 -5z m2390 -4 c-3 -3 -11 0 -18 7 -9 10 -8 11 6 5 10 -3 15 -9 12 -12z
m158 -20 c12 -13 15 -22 7 -27 -6 -3 -9 -2 -8 2 2 5 -10 22 -27 37 -19 17 -23
24 -10 18 11 -6 28 -19 38 -30z m57 14 c15 -40 57 -56 76 -30 10 13 12 12 18
-3 4 -10 2 -19 -4 -21 -8 -3 -7 -8 1 -18 9 -11 9 -14 -1 -14 -8 0 -10 -9 -5
-27 5 -23 4 -25 -9 -14 -13 11 -16 11 -16 -1 0 -8 6 -20 13 -27 10 -11 8 -11
-10 -2 -29 15 -29 2 -2 -33 27 -35 15 -33 -27 3 -18 16 -28 31 -22 33 11 4
-14 124 -33 161 -7 11 -6 17 1 17 6 0 15 -11 20 -24z m-2954 2 c5 -8 2 -9 -9
-5 -25 10 -20 -4 13 -37 17 -16 30 -33 30 -38 0 -13 -18 -9 -32 8 -7 8 -25 28
-40 44 -26 29 -23 37 14 39 9 1 20 -4 24 -11z m1434 8 c0 -2 -7 -9 -15 -16
-13 -11 -14 -10 -9 4 5 14 24 23 24 12z m1635 -6 c3 -6 -1 -7 -9 -4 -18 7 -21
14 -7 14 6 0 13 -4 16 -10z m-3039 -27 c-10 -10 -19 5 -10 18 6 11 8 11 12 0
2 -7 1 -15 -2 -18z m1494 13 c0 -7 -9 -16 -21 -19 -20 -5 -20 -5 -3 14 20 23
24 23 24 5z m-1426 -11 c3 -8 1 -15 -4 -15 -6 0 -10 7 -10 15 0 8 2 15 4 15 2
0 6 -7 10 -15z m2721 -5 c10 -11 13 -20 7 -20 -6 0 -16 9 -22 20 -6 11 -9 20
-7 20 2 0 12 -9 22 -20z m60 -19 c3 -6 -3 -9 -14 -8 -11 0 -17 5 -15 9 7 11
22 10 29 -1z m63 -39 c6 -19 7 -30 2 -27 -6 4 -10 0 -10 -7 0 -20 -27 13 -34
42 -6 23 -6 23 9 -3 18 -32 33 -31 16 1 -6 11 -7 22 -4 26 8 8 8 8 21 -32z
m-230 -27 c-3 -3 -13 7 -23 22 l-17 28 23 -22 c12 -12 20 -25 17 -28z m47 35
c3 -5 2 -10 -4 -10 -5 0 -13 5 -16 10 -3 6 -2 10 4 10 5 0 13 -4 16 -10z m119
-1 c-8 -13 16 -60 27 -53 5 2 15 -9 24 -25 19 -37 19 -47 2 -32 -8 6 -16 8
-20 5 -3 -3 -8 4 -12 15 -3 12 -10 19 -15 16 -4 -3 -13 2 -20 10 -9 10 -9 15
-1 15 6 0 11 -5 11 -12 0 -6 3 -8 6 -5 9 9 -16 38 -27 31 -15 -9 -10 8 8 28
18 20 28 24 17 7z m-2484 -9 c0 -5 -5 -10 -11 -10 -5 0 -7 5 -4 10 3 6 8 10
11 10 2 0 4 -4 4 -10z m1 -43 c-10 -9 -11 -8 -5 6 3 10 9 15 12 12 3 -3 0 -11
-7 -18z m1049 13 c0 -5 -5 -10 -11 -10 -5 0 -7 5 -4 10 3 6 8 10 11 10 2 0 4
-4 4 -10z m-905 -20 c3 -5 1 -10 -4 -10 -6 0 -11 5 -11 10 0 6 2 10 4 10 3 0
8 -4 11 -10z m2272 -22 c-3 -8 -6 -5 -6 6 -1 11 2 17 5 13 3 -3 4 -12 1 -19z
m-2799 -61 c5 -23 -11 -21 -32 2 -10 11 -24 17 -32 14 -8 -3 -14 1 -14 10 0
14 5 14 38 3 20 -7 38 -20 40 -29z m57 23 c3 -5 -1 -10 -9 -10 -9 0 -16 5 -16
10 0 6 4 10 9 10 6 0 13 -4 16 -10z m2708 -11 c4 -16 3 -18 -9 -8 -7 6 -11 15
-8 20 8 13 11 11 17 -12z m135 -16 c16 -16 16 -16 0 -10 -10 3 -20 2 -23 -3
-4 -6 -12 -10 -18 -10 -7 0 -4 5 6 11 9 6 15 14 12 20 -10 15 5 10 23 -8z m57
7 c3 -5 1 -10 -4 -10 -6 0 -11 5 -11 10 0 6 2 10 4 10 3 0 8 -4 11 -10z m-119
-25 c9 -37 0 -40 -13 -5 -6 17 -7 30 -2 30 5 0 11 -11 15 -25z m-2890 3 c4 -7
4 -10 -1 -6 -4 4 -14 0 -21 -10 -12 -16 -13 -16 -14 0 0 9 6 19 13 21 6 3 13
6 14 6 1 1 5 -5 9 -11z m80 -12 c0 -14 -5 -21 -9 -17 -4 4 -5 15 -1 24 9 24
12 21 10 -7z m2934 -7 c7 -11 9 -23 6 -27 -3 -3 -6 0 -6 6 0 6 -7 18 -16 26
-8 9 -11 16 -5 16 6 0 15 -9 21 -21z m35 12 c3 -5 1 -12 -5 -16 -5 -3 -10 1
-10 9 0 18 6 21 15 7z m-188 -23 c-3 -8 -6 -5 -6 6 -1 11 2 17 5 13 3 -3 4
-12 1 -19z m98 11 c11 -17 -1 -21 -15 -4 -8 9 -8 15 -2 15 6 0 14 -5 17 -11z
m-2926 -25 c5 4 13 2 16 -4 4 -7 -5 -10 -24 -8 -24 2 -31 7 -31 23 1 19 1 19
15 1 7 -10 18 -15 24 -12z m2821 -16 c0 -6 -7 -5 -15 2 -8 7 -15 17 -15 22 0
6 7 5 15 -2 8 -7 15 -17 15 -22z m135 -34 c-14 -17 -16 -12 -8 27 6 32 7 33
13 9 3 -14 1 -30 -5 -36z m-3009 21 c9 -8 13 -19 10 -24 -3 -5 1 -14 9 -21 8
-7 12 -17 9 -22 -9 -13 -44 22 -44 44 0 10 -4 18 -10 18 -5 0 -10 5 -10 10 0
15 19 12 36 -5z m2814 -5 c6 -11 9 -20 7 -20 -2 0 -12 9 -22 20 -10 11 -13 20
-7 20 6 0 16 -9 22 -20z m160 10 c0 -5 -2 -10 -4 -10 -3 0 -8 5 -11 10 -3 6
-1 10 4 10 6 0 11 -4 11 -10z m-2873 -22 c-3 -8 -6 -5 -6 6 -1 11 2 17 5 13 3
-3 4 -12 1 -19z m2866 -57 c-3 -33 -2 -34 7 -11 19 43 50 49 50 9 0 -11 -5
-17 -10 -14 -6 4 -8 11 -5 16 4 5 1 9 -4 9 -6 0 -11 -14 -11 -31 0 -22 -4 -28
-12 -22 -7 4 -5 -5 5 -20 9 -15 13 -27 8 -27 -14 0 -30 25 -37 58 -4 18 -11
29 -16 26 -6 -4 -5 3 1 14 7 14 8 23 1 27 -5 3 -10 10 -10 16 0 5 8 4 18 -2
13 -8 17 -21 15 -48z m-2743 23 c0 -8 -4 -12 -10 -9 -5 3 -10 13 -10 21 0 8 5
12 10 9 6 -3 10 -13 10 -21z m2560 -4 c0 -5 -2 -10 -4 -10 -3 0 -8 5 -11 10
-3 6 -1 10 4 10 6 0 11 -4 11 -10z m40 -20 c0 -5 -7 -7 -15 -4 -8 4 -15 8 -15
10 0 2 7 4 15 4 8 0 15 -4 15 -10z m-2886 -25 c3 -9 0 -15 -9 -15 -8 0 -15 7
-15 15 0 8 4 15 9 15 5 0 11 -7 15 -15z m110 -1 c3 -8 2 -12 -4 -9 -6 3 -10
10 -10 16 0 14 7 11 14 -7z m100 0 c4 -10 1 -14 -6 -12 -15 5 -23 28 -10 28 5
0 13 -7 16 -16z m2783 -51 c-3 -10 -5 -2 -5 17 0 19 2 27 5 18 2 -10 2 -26 0
-35z m-2827 22 c0 -8 5 -15 10 -15 6 0 10 -7 10 -15 0 -20 -10 -19 -26 3 -16
20 -18 42 -4 42 6 0 10 -7 10 -15z m65 -23 c-3 -3 -11 0 -18 7 -9 10 -8 11 6
5 10 -3 15 -9 12 -12z m-85 -49 c0 -10 -4 -14 -8 -8 -4 6 -11 13 -16 18 -5 4
-2 7 7 7 10 0 17 -8 17 -17z m-47 -23 c3 -11 3 -20 1 -20 -2 0 -8 9 -14 20 -6
11 -7 20 -2 20 6 0 12 -9 15 -20z m-63 0 c0 -5 -5 -10 -11 -10 -5 0 -7 5 -4
10 3 6 8 10 11 10 2 0 4 -4 4 -10z m340 0 c0 -5 -2 -10 -4 -10 -3 0 -8 5 -11
10 -3 6 -1 10 4 10 6 0 11 -4 11 -10z m-225 -10 c3 -5 1 -10 -4 -10 -6 0 -11
5 -11 10 0 6 2 10 4 10 3 0 8 -4 11 -10z m-168 -32 c-3 -8 -6 -5 -6 6 -1 11 2
17 5 13 3 -3 4 -12 1 -19z m263 -13 c0 -5 -5 -3 -10 5 -5 8 -10 20 -10 25 0 6
5 3 10 -5 5 -8 10 -19 10 -25z m100 20 c20 -24 6 -28 -15 -5 -10 11 -13 20 -8
20 6 0 16 -7 23 -15z m-321 -40 c0 -5 -6 -1 -14 9 -8 10 -11 24 -8 29 6 10 21
-16 22 -38z m801 35 c0 -5 -2 -10 -4 -10 -3 0 -8 5 -11 10 -3 6 -1 10 4 10 6
0 11 -4 11 -10z m2088 -25 c0 -39 -14 -38 -16 1 -2 20 1 33 6 30 5 -3 10 -17
10 -31z m-2778 15 c0 -5 -4 -10 -10 -10 -5 0 -10 5 -10 10 0 6 5 10 10 10 6 0
10 -4 10 -10z m-70 -21 c0 -5 -4 -9 -10 -9 -5 0 -10 7 -10 16 0 8 5 12 10 9 6
-3 10 -10 10 -16z m-153 -15 c-9 -9 -28 6 -21 18 4 6 10 6 17 -1 6 -6 8 -13 4
-17z m273 -40 c0 -17 -1 -17 -14 1 -7 11 -17 31 -21 45 l-7 25 21 -27 c11 -14
21 -34 21 -44z m720 36 c0 -5 -4 -10 -10 -10 -5 0 -10 5 -10 10 0 6 5 10 10
10 6 0 10 -4 10 -10z m-1653 -6 c-3 -3 -12 -4 -19 -1 -8 3 -5 6 6 6 11 1 17
-2 13 -5z m1850 0 c-3 -3 -12 -4 -19 -1 -8 3 -5 6 6 6 11 1 17 -2 13 -5z
m-259 -35 c-7 -4 -7 -9 1 -13 6 -4 11 -13 11 -19 0 -8 -3 -8 -8 -2 -4 6 -13
10 -21 10 -8 0 -16 6 -18 13 -3 6 2 12 11 12 9 0 16 8 16 18 0 14 2 15 10 2 6
-9 5 -17 -2 -21z m-1608 -3 c0 -8 -4 -17 -9 -21 -12 -7 -24 12 -16 25 9 15 25
12 25 -4z m3592 -8 c-7 -7 -12 -8 -12 -2 0 14 12 26 19 19 2 -3 -1 -11 -7 -17z
m-2882 -18 c0 -5 -7 -10 -16 -10 -8 0 -12 5 -9 10 3 6 10 10 16 10 5 0 9 -4 9
-10z"/>
<path d="M4760 4820 c42 -29 48 -30 43 -10 -4 14 -14 20 -32 20 -21 0 -23 -2
-11 -10z"/>
<path d="M4905 4630 c-3 -5 1 -10 9 -10 8 0 18 5 21 10 3 6 -1 10 -9 10 -8 0
-18 -4 -21 -10z"/>
<path d="M4970 4620 c0 -5 5 -10 11 -10 5 0 7 5 4 10 -3 6 -8 10 -11 10 -2 0
-4 -4 -4 -10z"/>
<path d="M4923 4593 c0 -15 19 -12 24 3 2 6 -3 11 -10 11 -8 0 -14 -6 -14 -14z"/>
<path d="M4902 4540 c-7 -11 -8 -20 -2 -20 5 0 14 9 20 20 6 11 7 20 3 20 -5
0 -14 -9 -21 -20z"/>
<path d="M4995 4550 c3 -5 8 -10 11 -10 2 0 4 5 4 10 0 6 -5 10 -11 10 -5 0
-7 -4 -4 -10z"/>
<path d="M4928 4513 c7 -3 16 -2 19 1 4 3 -2 6 -13 5 -11 0 -14 -3 -6 -6z"/>
<path d="M4858 4463 c-24 -6 -23 -15 3 -33 12 -8 27 -20 34 -27 7 -7 15 -9 18
-6 4 3 -5 14 -18 25 -14 11 -22 25 -18 33 3 8 4 14 2 14 -2 -1 -12 -3 -21 -6z"/>
<path d="M4900 4440 c0 -5 5 -10 11 -10 5 0 7 5 4 10 -3 6 -8 10 -11 10 -2 0
-4 -4 -4 -10z"/>
<path d="M4937 4383 c5 -13 2 -15 -11 -10 -10 4 -15 3 -11 -3 3 -6 13 -10 21
-10 8 0 13 -4 10 -8 -3 -5 1 -9 8 -9 10 0 10 6 -1 29 -16 30 -26 38 -16 11z"/>
<path d="M4886 4365 c6 -15 4 -17 -11 -11 -11 4 -16 4 -12 -1 5 -4 22 -8 38
-9 17 -1 29 -1 27 0 -2 1 -13 10 -26 21 -22 18 -23 18 -16 0z"/>
<path d="M4914 4312 c19 -22 19 -22 -12 -35 -21 -9 -28 -17 -23 -26 7 -11 11
-10 22 2 7 7 23 12 34 10 16 -4 17 -3 5 6 -13 10 -13 12 0 20 8 6 12 11 10 13
-3 2 -16 9 -30 17 l-25 14 19 -21z"/>
<path d="M4844 4301 c3 -5 16 -11 28 -14 22 -6 22 -5 4 8 -22 17 -40 20 -32 6z"/>
<path d="M4835 4259 c5 -21 2 -27 -14 -32 -24 -6 -28 -27 -5 -27 9 0 12 5 8
11 -5 9 7 10 44 7 28 -3 49 -1 46 4 -3 4 -16 8 -30 8 -14 0 -23 4 -20 9 3 4
-4 17 -15 27 -20 18 -20 18 -14 -7z"/>
<path d="M4807 4249 c7 -7 15 -10 18 -7 3 3 -2 9 -12 12 -14 6 -15 5 -6 -5z"/>
<path d="M4915 4240 c3 -5 10 -10 16 -10 5 0 9 5 9 10 0 6 -7 10 -16 10 -8 0
-12 -4 -9 -10z"/>
<path d="M5011 4214 c0 -11 3 -14 6 -6 3 7 2 16 -1 19 -3 4 -6 -2 -5 -13z"/>
<path d="M4948 4143 c7 -3 16 -2 19 1 4 3 -2 6 -13 5 -11 0 -14 -3 -6 -6z"/>
<path d="M4975 3990 c3 -5 8 -10 11 -10 2 0 4 5 4 10 0 6 -5 10 -11 10 -5 0
-7 -4 -4 -10z"/>
<path d="M4741 3974 c0 -11 3 -14 6 -6 3 7 2 16 -1 19 -3 4 -6 -2 -5 -13z"/>
<path d="M4984 3949 c-3 -6 -1 -16 4 -21 8 -8 11 -5 9 11 -1 24 -3 25 -13 10z"/>
<path d="M2700 4360 c0 -5 5 -10 10 -10 6 0 10 5 10 10 0 6 -4 10 -10 10 -5 0
-10 -4 -10 -10z"/>
<path d="M2720 4330 c0 -5 7 -10 16 -10 8 0 12 5 9 10 -3 6 -10 10 -16 10 -5
0 -9 -4 -9 -10z"/>
<path d="M2692 4299 c2 -6 8 -10 13 -10 5 0 11 4 13 10 2 6 -4 11 -13 11 -9 0
-15 -5 -13 -11z"/>
<path d="M2540 4290 c0 -13 18 -22 24 -11 3 5 -1 11 -9 15 -8 3 -15 1 -15 -4z"/>
<path d="M2630 4290 c0 -5 5 -10 11 -10 5 0 7 5 4 10 -3 6 -8 10 -11 10 -2 0
-4 -4 -4 -10z"/>
<path d="M2720 4280 c0 -5 4 -10 9 -10 6 0 13 5 16 10 3 6 -1 10 -9 10 -9 0
-16 -4 -16 -10z"/>
<path d="M2403 4164 c4 -4 2 -13 -5 -21 -7 -9 -8 -17 -1 -24 6 -6 13 -1 21 15
9 20 8 25 -6 31 -9 3 -13 3 -9 -1z"/>
<path d="M2455 4150 c3 -5 12 -7 20 -3 21 7 19 13 -6 13 -11 0 -18 -4 -14 -10z"/>
<path d="M2540 4116 c0 -8 -6 -16 -12 -19 -7 -3 -4 -5 8 -4 15 1 20 6 16 19
-5 22 -12 24 -12 4z"/>
<path d="M2441 4104 c0 -11 3 -14 6 -6 3 7 2 16 -1 19 -3 4 -6 -2 -5 -13z"/>
<path d="M2470 4071 c0 -6 4 -13 10 -16 6 -3 7 1 4 9 -7 18 -14 21 -14 7z"/>
<path d="M2390 4030 c0 -5 5 -10 10 -10 6 0 10 5 10 10 0 6 -4 10 -10 10 -5 0
-10 -4 -10 -10z"/>
<path d="M2293 3998 c-2 -18 0 -20 7 -8 12 18 13 30 2 30 -4 0 -9 -10 -9 -22z"/>
<path d="M2455 4010 c-19 -8 -19 -9 3 -9 12 -1 22 4 22 9 0 6 -1 10 -2 9 -2 0
-12 -4 -23 -9z"/>
<path d="M2270 3929 c0 -5 5 -7 10 -4 6 3 10 8 10 11 0 2 -4 4 -10 4 -5 0 -10
-5 -10 -11z"/>
<path d="M2296 3837 c3 -10 9 -15 12 -12 3 3 0 11 -7 18 -10 9 -11 8 -5 -6z"/>
<path d="M2220 3766 c0 -2 7 -7 16 -10 8 -3 12 -2 9 4 -6 10 -25 14 -25 6z"/>
<path d="M2368 3663 c6 -2 18 -2 25 0 6 3 1 5 -13 5 -14 0 -19 -2 -12 -5z"/>
<path d="M2298 3593 c7 -3 16 -2 19 1 4 3 -2 6 -13 5 -11 0 -14 -3 -6 -6z"/>
<path d="M2270 3559 c0 -5 5 -7 10 -4 6 3 10 8 10 11 0 2 -4 4 -10 4 -5 0 -10
-5 -10 -11z"/>
<path d="M2310 3556 c0 -8 -6 -17 -12 -19 -7 -3 -1 -6 15 -6 21 -1 27 4 27 19
0 11 -7 20 -15 20 -8 0 -15 -6 -15 -14z"/>
<path d="M2225 3470 c-5 -8 -10 -21 -12 -29 -1 -11 2 -11 14 2 8 8 13 21 11
28 -3 10 -6 10 -13 -1z"/>
<path d="M2230 3431 c0 -6 5 -13 10 -16 6 -3 10 1 10 9 0 9 -4 16 -10 16 -5 0
-10 -4 -10 -9z"/>
<path d="M2373 3382 c-22 -3 -33 -22 -13 -22 6 0 10 -6 10 -14 0 -8 12 -17 26
-20 33 -9 39 -3 19 14 -14 12 -13 15 12 25 l28 12 -30 4 c-16 2 -40 3 -52 1z"/>
<path d="M2235 3370 c-3 -5 -1 -10 4 -10 6 0 11 5 11 10 0 6 -2 10 -4 10 -3 0
-8 -4 -11 -10z"/>
<path d="M4613 3695 c-3 -9 -3 -18 -1 -21 3 -3 8 4 11 16 6 23 -1 27 -10 5z"/>
<path d="M1759 3453 c-6 -18 -6 -30 0 -36 14 -14 17 -9 26 31 8 40 -11 44 -26
5z"/>
<path d="M1676 3225 c-8 -9 -13 -21 -10 -28 2 -7 -2 -30 -11 -50 -9 -22 -11
-37 -5 -37 5 0 10 -11 10 -24 0 -34 20 -87 31 -80 5 3 9 -6 9 -20 0 -17 -6
-26 -16 -26 -8 0 -13 -4 -10 -9 4 -5 7 -28 8 -51 1 -22 5 -43 10 -46 4 -3 8
-20 8 -37 1 -18 7 -45 14 -62 l14 -30 7 32 c4 18 11 30 16 27 5 -3 9 2 9 11 0
9 -4 13 -10 10 -5 -3 -10 3 -10 15 0 12 -4 18 -10 15 -15 -9 -17 96 -4 190 3
28 6 79 6 113 0 51 -4 67 -20 83 -19 17 -22 17 -36 4z m54 -429 c0 -3 -4 -8
-10 -11 -5 -3 -10 -1 -10 4 0 6 5 11 10 11 6 0 10 -2 10 -4z"/>
<path d="M1780 3079 c0 -5 5 -7 10 -4 6 3 10 8 10 11 0 2 -4 4 -10 4 -5 0 -10
-5 -10 -11z"/>
<path d="M1712 2700 c0 -14 2 -19 5 -12 2 6 2 18 0 25 -3 6 -5 1 -5 -13z"/>
<path d="M2857 3303 c-4 -3 -7 -13 -7 -22 0 -13 2 -13 9 -2 5 7 14 11 20 7 7
-5 9 -1 5 8 -7 17 -16 20 -27 9z"/>
<path d="M4275 3200 c3 -5 16 -10 28 -10 18 0 19 2 7 10 -20 13 -43 13 -35 0z"/>
<path d="M4338 3193 c6 -2 18 -2 25 0 6 3 1 5 -13 5 -14 0 -19 -2 -12 -5z"/>
<path d="M4240 3080 c0 -5 5 -10 10 -10 6 0 10 5 10 10 0 6 -4 10 -10 10 -5 0
-10 -4 -10 -10z"/>
<path d="M4407 3013 c-13 -12 -7 -33 8 -33 8 0 15 9 15 20 0 20 -11 26 -23 13z"/>
<path d="M5090 3081 c0 -6 4 -13 10 -16 6 -3 7 1 4 9 -7 18 -14 21 -14 7z"/>
<path d="M5107 2574 c-3 -3 -3 -12 0 -20 3 -8 -1 -14 -8 -14 -18 0 -5 -10 20
-15 25 -5 27 2 4 27 -18 20 -5 25 17 6 12 -11 12 -10 1 5 -14 18 -24 21 -34
11z"/>
<path d="M5142 2170 c0 -14 2 -19 5 -12 2 6 2 18 0 25 -3 6 -5 1 -5 -13z"/>
<path d="M4070 2706 c0 -2 7 -7 16 -10 8 -3 12 -2 9 4 -6 10 -25 14 -25 6z"/>
<path d="M4697 2056 c-3 -8 2 -13 16 -13 31 0 58 -13 50 -26 -3 -6 -1 -7 5 -3
7 4 12 14 12 23 0 9 -3 14 -6 11 -3 -4 -21 0 -39 8 -27 11 -34 11 -38 0z"/>
<path d="M4760 1969 c0 -5 5 -7 10 -4 6 3 10 8 10 11 0 2 -4 4 -10 4 -5 0 -10
-5 -10 -11z"/>
<path d="M4516 1821 c-4 -7 -5 -15 -2 -18 9 -9 36 5 36 19 0 10 -2 10 -9 -1
-7 -11 -9 -11 -13 0 -3 10 -6 10 -12 0z"/>
<path d="M4715 1580 c3 -5 8 -10 11 -10 2 0 4 5 4 10 0 6 -5 10 -11 10 -5 0
-7 -4 -4 -10z"/>
<path d="M4890 1021 c0 -5 8 -17 17 -27 18 -18 30 -6 19 21 -6 16 -36 21 -36
6z"/>
<path d="M4890 906 c0 -2 12 -11 26 -21 25 -16 25 -16 14 4 -9 17 -40 30 -40
17z"/>
<path d="M4923 643 c9 -2 17 -9 17 -14 0 -5 7 -9 15 -9 8 0 15 4 15 9 0 11
-26 21 -48 20 -15 -1 -15 -2 1 -6z"/>
<path d="M4920 616 c0 -2 8 -10 18 -17 15 -13 16 -12 3 4 -13 16 -21 21 -21
13z"/>
<path d="M280 2280 c0 -29 4 -40 15 -40 11 0 15 11 15 40 0 29 -4 40 -15 40
-11 0 -15 -11 -15 -40z"/>
<path d="M323 2120 c0 -25 2 -35 4 -22 2 12 2 32 0 45 -2 12 -4 2 -4 -23z"/>
<path d="M423 2120 c0 -25 2 -35 4 -22 2 12 2 32 0 45 -2 12 -4 2 -4 -23z"/>
<path d="M520 2040 c0 -29 4 -40 15 -40 11 0 15 11 15 40 0 29 -4 40 -15 40
-11 0 -15 -11 -15 -40z"/>
<path d="M1585 1960 c3 -5 8 -10 11 -10 2 0 4 5 4 10 0 6 -5 10 -11 10 -5 0
-7 -4 -4 -10z"/>
<path d="M802 1940 c0 -14 2 -19 5 -12 2 6 2 18 0 25 -3 6 -5 1 -5 -13z"/>
<path d="M873 1873 c-26 -9 -13 -33 17 -33 21 0 28 4 24 14 -7 17 -24 25 -41
19z"/>
<path d="M515 1750 c3 -5 10 -10 16 -10 5 0 9 5 9 10 0 6 -7 10 -16 10 -8 0
-12 -4 -9 -10z"/>
<path d="M1570 1640 c0 -5 5 -10 10 -10 6 0 10 5 10 10 0 6 -4 10 -10 10 -5 0
-10 -4 -10 -10z"/>
<path d="M1433 1545 c-3 -10 -1 -20 4 -24 6 -3 13 -13 16 -21 3 -8 6 -1 6 17
1 35 -16 53 -26 28z"/>
<path d="M1405 1440 c-9 -15 4 -30 26 -30 23 0 26 25 3 34 -21 8 -22 8 -29 -4z"/>
<path d="M1620 1375 c0 -17 36 -39 44 -26 8 13 -4 20 -22 14 -11 -5 -14 -2 -9
10 3 9 2 17 -3 17 -6 0 -10 -7 -10 -15z"/>
<path d="M1535 1310 c-3 -5 -1 -10 4 -10 6 0 11 5 11 10 0 6 -2 10 -4 10 -3 0
-8 -4 -11 -10z"/>
<path d="M1771 1154 c10 -12 10 -17 1 -23 -9 -5 -6 -13 8 -29 27 -29 46 -28
45 3 -2 25 -15 49 -15 27 0 -7 -5 -12 -11 -12 -6 0 -9 6 -6 14 6 14 -10 36
-26 36 -5 0 -4 -7 4 -16z"/>
<path d="M1120 1140 c0 -11 4 -20 9 -20 5 0 7 9 4 20 -3 11 -7 20 -9 20 -2 0
-4 -9 -4 -20z"/>
<path d="M1680 1010 c0 -5 7 -10 15 -10 8 0 15 5 15 10 0 6 -7 10 -15 10 -8 0
-15 -4 -15 -10z"/>
<path d="M1470 1000 c0 -5 5 -10 11 -10 5 0 7 5 4 10 -3 6 -8 10 -11 10 -2 0
-4 -4 -4 -10z"/>
<path d="M1430 971 c0 -11 5 -23 10 -26 6 -4 10 5 10 19 0 14 -4 26 -10 26 -5
0 -10 -9 -10 -19z"/>
<path d="M1694 975 c-10 -8 -14 -15 -8 -15 6 0 17 7 24 15 16 19 9 19 -16 0z"/>
<path d="M1780 940 c0 -5 5 -10 11 -10 5 0 7 5 4 10 -3 6 -8 10 -11 10 -2 0
-4 -4 -4 -10z"/>
<path d="M1740 923 c1 -9 50 -47 50 -38 0 6 -38 45 -45 45 -3 0 -5 -3 -5 -7z"/>
<path d="M1855 920 c-3 -5 -1 -10 4 -10 6 0 11 5 11 10 0 6 -2 10 -4 10 -3 0
-8 -4 -11 -10z"/>
<path d="M1942 911 c27 -22 58 -28 58 -12 0 13 -8 17 -50 26 l-35 7 27 -21z"/>
<path d="M1810 890 c0 -11 5 -20 10 -20 6 0 10 -7 10 -16 0 -14 2 -15 17 -3
15 13 15 14 0 17 -10 2 -17 12 -17 23 0 10 -4 19 -10 19 -5 0 -10 -9 -10 -20z"/>
<path d="M1343 883 c9 -2 25 -2 35 0 9 3 1 5 -18 5 -19 0 -27 -2 -17 -5z"/>
<path d="M1628 883 c7 -3 16 -2 19 1 4 3 -2 6 -13 5 -11 0 -14 -3 -6 -6z"/>
<path d="M1970 860 c0 -5 7 -10 15 -10 8 0 15 5 15 10 0 6 -7 10 -15 10 -8 0
-15 -4 -15 -10z"/>
<path d="M1910 851 c0 -5 5 -13 10 -16 6 -3 10 -2 10 4 0 5 -4 13 -10 16 -5 3
-10 2 -10 -4z"/>
<path d="M1391 834 c0 -11 3 -14 6 -6 3 7 2 16 -1 19 -3 4 -6 -2 -5 -13z"/>
<path d="M1949 814 c-12 -14 -11 -16 5 -13 11 2 21 10 24 17 5 17 -13 15 -29
-4z"/>
<path d="M2000 820 c0 -5 7 -7 15 -4 8 4 15 8 15 10 0 2 -7 4 -15 4 -8 0 -15
-4 -15 -10z"/>
<path d="M1700 812 c0 -12 19 -26 26 -19 2 2 -2 10 -11 17 -9 8 -15 8 -15 2z"/>
<path d="M1470 780 c0 -5 7 -10 16 -10 8 0 12 5 9 10 -3 6 -10 10 -16 10 -5 0
-9 -4 -9 -10z"/>
<path d="M1443 738 c21 -7 32 -7 40 1 8 8 0 11 -28 10 -40 -1 -40 -1 -12 -11z"/>
<path d="M1791 734 c0 -11 3 -14 6 -6 3 7 2 16 -1 19 -3 4 -6 -2 -5 -13z"/>
<path d="M1090 710 c0 -5 7 -10 15 -10 8 0 15 5 15 10 0 6 -7 10 -15 10 -8 0
-15 -4 -15 -10z"/>
<path d="M1351 704 c0 -11 3 -14 6 -6 3 7 2 16 -1 19 -3 4 -6 -2 -5 -13z"/>
<path d="M1750 692 c0 -12 4 -22 9 -22 5 0 11 -6 14 -12 2 -7 2 -2 0 12 -6 34
-23 50 -23 22z"/>
<path d="M1820 702 c1 -15 26 -39 48 -46 27 -9 28 -2 4 22 -21 21 -52 35 -52
24z"/>
<path d="M1388 675 c-6 -30 -3 -43 8 -33 3 4 4 19 2 35 l-3 28 -7 -30z"/>
<path d="M1320 675 c0 -8 5 -15 10 -15 6 0 10 7 10 15 0 8 -4 15 -10 15 -5 0
-10 -7 -10 -15z"/>
<path d="M1798 652 c-4 -15 -2 -25 8 -29 8 -3 14 -13 15 -22 0 -9 3 -11 5 -5
3 7 -1 27 -9 45 -13 32 -14 33 -19 11z"/>
<path d="M1730 641 c0 -5 5 -13 10 -16 6 -3 10 -2 10 4 0 5 -4 13 -10 16 -5 3
-10 2 -10 -4z"/>
<path d="M1361 625 c0 -11 6 -29 14 -39 8 -11 15 -15 15 -10 0 6 -4 14 -9 20
-5 5 -11 18 -14 29 l-5 20 -1 -20z"/>
<path d="M1753 605 c-3 -9 -3 -18 -1 -21 3 -3 8 4 11 16 6 23 -1 27 -10 5z"/>
<path d="M1641 601 c-8 -6 -9 -11 -3 -15 6 -3 14 -1 17 5 9 14 2 20 -14 10z"/>
<path d="M1780 596 c0 -8 10 -21 22 -27 20 -11 20 -13 5 -24 -24 -17 -21 -28
3 -13 25 16 25 19 -5 52 -17 19 -25 22 -25 12z"/>
<path d="M1853 581 c1 -11 7 -17 14 -14 17 7 17 20 -1 26 -10 4 -14 0 -13 -12z"/>
<path d="M1730 556 c0 -2 8 -10 18 -17 15 -13 16 -12 3 4 -13 16 -21 21 -21
13z"/>
<path d="M1280 534 c0 -15 26 -19 34 -5 3 5 -3 11 -14 14 -13 3 -20 0 -20 -9z"/>
<path d="M1648 538 c7 -7 12 -21 12 -33 0 -13 7 -21 19 -22 18 -2 19 1 8 25
-12 28 -25 42 -41 42 -6 0 -5 -5 2 -12z"/>
<path d="M1232 481 c-11 -7 -11 -9 2 -14 9 -4 23 -4 32 0 13 5 13 7 2 14 -7 5
-15 9 -18 9 -3 0 -11 -4 -18 -9z"/>
<path d="M1730 444 c0 -8 5 -12 10 -9 6 4 8 11 5 16 -9 14 -15 11 -15 -7z"/>
<path d="M1248 443 c-29 -7 -21 -25 10 -21 15 2 26 7 25 13 -2 12 -12 14 -35
8z"/>
<path d="M1710 420 c0 -6 7 -10 15 -10 8 0 15 2 15 4 0 2 -7 6 -15 10 -8 3
-15 1 -15 -4z"/>
<path d="M1707 393 c-10 -9 -9 -23 2 -23 5 0 11 7 15 15 5 15 -5 20 -17 8z"/>
<path d="M1730 363 c0 -5 7 -18 15 -29 12 -16 14 -16 15 -3 0 9 -7 22 -15 29
-8 7 -15 8 -15 3z"/>
<path d="M1710 325 c0 -18 19 -40 26 -32 4 4 0 15 -9 24 -9 10 -17 13 -17 8z"/>
<path d="M1690 256 c0 -9 5 -16 10 -16 6 0 10 4 10 9 0 6 -4 13 -10 16 -5 3
-10 -1 -10 -9z"/>
<path d="M1640 213 c0 -5 11 -9 25 -9 14 -1 22 2 19 7 -6 11 -44 12 -44 2z"/>
<path d="M190 70 c0 -5 5 -10 11 -10 5 0 7 5 4 10 -3 6 -8 10 -11 10 -2 0 -4
-4 -4 -10z"/>
<path d="M1475 70 c3 -5 8 -10 11 -10 2 0 4 5 4 10 0 6 -5 10 -11 10 -5 0 -7
-4 -4 -10z"/>
</g>
</svg>
